<mxfile host="app.diagrams.net" agent="Mozilla/5.0 (Windows NT 10.0; Win64; x64) AppleWebKit/537.36 (KHTML, like Gecko) Chrome/137.0.0.0 Safari/537.36" version="27.1.6">
  <diagram name="Page-1" id="_e93KkGekCQ-BGo9WDWk">
    <mxGraphModel dx="3994" dy="2800" grid="1" gridSize="10" guides="1" tooltips="1" connect="1" arrows="1" fold="1" page="1" pageScale="1" pageWidth="850" pageHeight="1100" math="0" shadow="0">
      <root>
        <mxCell id="0" />
        <mxCell id="1" parent="0" />
        <mxCell id="PL4-hdovq-cvh_rnjsfR-104" value="" style="rounded=0;whiteSpace=wrap;html=1;" vertex="1" parent="1">
          <mxGeometry x="16.64" y="1980" width="730" height="400" as="geometry" />
        </mxCell>
        <mxCell id="PL4-hdovq-cvh_rnjsfR-103" value="" style="rounded=0;whiteSpace=wrap;html=1;fillColor=#f5f5f5;strokeColor=#666666;fontColor=#333333;" vertex="1" parent="1">
          <mxGeometry x="16.64" y="-80" width="3130" height="1890" as="geometry" />
        </mxCell>
        <mxCell id="PL4-hdovq-cvh_rnjsfR-102" value="" style="rounded=0;whiteSpace=wrap;html=1;" vertex="1" parent="1">
          <mxGeometry x="2210" y="150" width="250" height="1500" as="geometry" />
        </mxCell>
        <mxCell id="PL4-hdovq-cvh_rnjsfR-87" value="" style="rounded=0;whiteSpace=wrap;html=1;" vertex="1" parent="1">
          <mxGeometry x="1370" y="150" width="600" height="1500" as="geometry" />
        </mxCell>
        <mxCell id="PL4-hdovq-cvh_rnjsfR-86" value="" style="rounded=0;whiteSpace=wrap;html=1;" vertex="1" parent="1">
          <mxGeometry x="550" y="150" width="530" height="1490" as="geometry" />
        </mxCell>
        <mxCell id="PL4-hdovq-cvh_rnjsfR-6" style="edgeStyle=orthogonalEdgeStyle;rounded=0;orthogonalLoop=1;jettySize=auto;html=1;" edge="1" parent="1" source="PL4-hdovq-cvh_rnjsfR-39" target="PL4-hdovq-cvh_rnjsfR-37">
          <mxGeometry relative="1" as="geometry">
            <Array as="points">
              <mxPoint x="610" y="640" />
              <mxPoint x="610" y="1510" />
            </Array>
            <mxPoint x="735" y="609.9999999999998" as="sourcePoint" />
            <mxPoint x="750" y="1510" as="targetPoint" />
          </mxGeometry>
        </mxCell>
        <mxCell id="PL4-hdovq-cvh_rnjsfR-15" value="" style="shape=image;verticalLabelPosition=bottom;labelBackgroundColor=default;verticalAlign=top;aspect=fixed;imageAspect=0;image=data:image/png,iVBORw0KGgoAAAANSUhEUgAAAMwAAADACAMAAAB/Pny7AAAAbFBMVEX///8jHyAAAADz8/P4+Pj7+/sgHB0bFhdgX1+qqaqJiIkIAAAfGhvr6+sVEBGAf39NSkrf3t4tKytZWVkPBwmamprl5eWTkpLR0NCxsLB6eXmjoqIqJifIx8dzcnK8u7s6NzhoZ2dCP0BTUVIOhml2AAAPmElEQVR4nO1dB5PrKBK2kASyAgrGCraV//9/PAUaUPCbke/tDdqb3qqterLG8Bk60t1cLr+0R7YZX8Nb1Ff3PLB/ejL/HdnBtUMIMcqG//tZbP30hP4LMosGUQOIIHZPf3pKH1MaUgllJB/d4p+e1IcUV8g3VoS68qen9RGllbfBYhisy396Yh+Qme1hGdDcTsg3pUHE/EeBhvk/MHF/emqHKbh5fPYU3dx71lIE/z4f25Qwd9TkpmmZZtyieXEwc0+mPc2WLwxyhKJ0qc+55mQywOTLwDpF6Vez1vFf9c9N7BOq+S5D6iKkzbw0KDvXPrvOYDzHVJ+289Kg0Hz3d1qSO4NB94Vp+ZzBeO25VE3FwdSLDVXOYJhzLgvtwcEUCzA1B9OeC0zGwbiLbZbxbVYFPzWvj6hAXNur07ZvdA+i9pSDaC6Uh/VrEs2YPn9sXh+RmcxmJkmkoolv/FlzMqVpcaYxWANmZe4QbhXsSWY7iONU15BHzO0Zg74euXkxc7fhWHxy37xdhn3XNE3Xh1pa1KYLZrNP8St5YQruDXPWC1N0hJKJKNVzD8YNA+cM+8N/8A/yKlYv3hARnw6+G4o0FNy1L1xNhTALV68laPUKQ/rtNetJtmgwq5ZMXlO2eclH+m016/mieDlNSqulviwx3WAZ0WjovtU9VeFQr8mWL8SRJxH4MppDGw3t6jiLKI8EYsa6x2r72ELkGcxLmheDGA4m4f4X/ijZ+f0x+Zc4abNy7ZPFPCpgEOTci7rIHGAz0mi40QYKwvHnZ+3O7GBhqH+fnAI7vjeUL42m0bX7OGUUbrWHzRfGp8Ltsa7cqKOahtgnMw09tmCEaX2X4tpyZ/2qpyXwBzB3cHrURYijaWkw3VpwOtBbMM6sL1G2G8LRk2negnnN7LHS95kx7TPvoaU7+hYMl8MrU+z64mC0DK7dP1uZULuVsc20nFiD3urUXDmS5+IZKy1aiuYpU0RvxfLsnLvWNFINsVRTaZZeO6ScBfoM+U9VCgs9c5VLZuupZ6zaQWv7fnAjC7GnAh5cM4ghJm4VzcxIeh19ms/GM7bEiDvP0iofEPMwWHOdH6ZPsM18nVjGcnfdrmEZ6GPcannWIOnqUNo+B6v53r74H2llNdsu24sATKxDqtR89svPMaNJk1DGOQxTnRbmTRLAjAY77Uu4YQKOT2QIh+oUoSkXiSbEQ566DpiAU8aQsbeAesUAEoVfEHq1j7ZB20QajPq89ras5WsVa8pkKIwhLr2CO0XLWA2a7Jgar+NmSKt1seT0UC91vhUyNVSDqvlxPKgjuWiYoptWRlkGCgZ7S6H0lIEnomQ21D0mPNZMcKSV5h84BpgauSszXuw/Hy/EVZk5Udd1UZvptMNGykHesn5jkkQQjN1EYK00TrXaXzPdCWT8FJvPxLEN0s9d2SXukOxHi3q+NLTX0pHcUM/BoGznx7+CpfzSSMe/JzPi/I+uO5+CD4ORTib+Wwo6wjXGlmUGI18wjZ4RyxWlAAbvaYyTgQn4NsPe3srEYpudAozVA8/sJWJA7qZPTyEALg6A2QmVyVOM7hyiOeRgfH9ryVuCZapzKM0Sw4TXpplinKnhpYmsgTTMNjETbtH7bC3PUsCCmWpR2kFcZ4+qyupYu/SZCqxJtkouDxpwK32jEAxlp8WNopmYU2gm5WLhnHldrThneSQTGHzUlvNHQRHJSgHfQ32hl2ho5Yk4y/J5bmb+bBbJGAhNzkv8WOVoMBRqtTipDF74qHOfdV0/3WgdSfNR9IxzZxUZGPWpXtm1TyVIQREb43tq3BlyMShxnL0YLtpkcf0kma0aclnE90YML8whYLofw2UPnYRafFsHkJSZdnXebg4IqIeQ2Ie+sec+/BjF/Ts0bDx5GYseFw9RV7lVg0AW0G344CdpWJs1Z0+Ekln3BC6SUgx15aD/LbOOwKg29EoXNsPNVholmPzJ0wg+l4ZaAEVErNVL21zKiFGF8zEmjKq8EMAxYCs1q9nyI1DtKtPsok8wj2JiQl7dMneOC3CfqWqlniuGsK/XPpsoz6ppdn7Tuuvfmm+pZcKT7Wh6dD5TOCc1bHmAH3ys6lK4O+TpmAvIncu9fDN+6Lc6jXkaOqebvAVDd8HctU4Eegum291mD6155i0YXsvltepHJo/usmzzvg70FgzP0PCpus+K2en2E62sM0FvwYDSZMpBec4Xhka6HTvNNCfPbSM18nzDEzZOzsvSjHXNgB4U3yc+J427/amhaNigRjYuTpzBmbu/LkzRgcobeCm+h7r1BE0R4fARarqXzBWgjnYLE1RIDVZQ1KwYJ1cyHQiVMQKS6GZmDlbzts5nGRa07t6e0+MzzdIAByzdNljho+VWM0O6TZ7x2eOHpvyW8n4v8KJk/U0UuK9NNIBqZ2MGldxjGCt5ct0yKGY+u0XKE0GRdnvMvooQAEWMMBmBpStz2C7DZHhjwDu6oqjZuD0/T6mIkaMoGzMWHSrqfNZnA2Z5bxvqIW/w4O6lfsayfRUHMVk8roQVP0Ehsm3XCSvO6+Ja1HmsnXq5jOoQMhueMHOrgDqfN2aXjjgmghyZRe8Pd06q0dJU+RNxq8v31MAkpDucrVULtJ2oFuxRQauWcxybA0F3k+dCNl1P2arFhpBYsduq5WTdTaBVy/KAvGBnXBnBM0tt756TZ7g0I4m6BpCJdjZpBqfnSA0YXefwnmbHYl8TWAC+kqdVdn+2ALQlYZtR/zkziFlAuuOObaY5xZCpTWh7r8v6WSWizkeznPKvyRKpAJgZTde8ZKuW6mwLMzg0MhVgzPSXdT6nbHFaNtu+JWOR1slEGafa2KLBSM/g/tc0rM0qKkZ2E7fPQbFDlDofn1DjjPwiqOgTSunUUoquT85PSPXD6cc6H+ehWYbfZ2SmeZnH/wYkv/RLv/RLv/RLv/RL/36y/8cVTbbF6S9/bxDndV088xnNPzTIiqz6PtPf9RPzIoxeYz3T3KM+z/go/+xCmSGvomr+4pdaRe+hKYl7BmM/oVTrn10a6FdMo7/4nRmFCAEHc4Vg+/nAZExEB04PpmxkjsnpwTwgpkZAAJwXTArtHFjyjM1p9ucFw2sxDNqLSNp5wWRzJF0tYDovGNfjXyhDnOcFE3IwSp2crmCCNB4o/UPcD8Dc5DtHwZjBNMjhMvV9MLEgdXQ7HUyuNmqaqHWLPJgf8femf1njFHhh+sD/4vk+mFQMsvhpgrx226hrOie8lvOhacDf+yphYhdM6XC6uUqOQnytBtvRo4SMd2g24Xg1kBne5hen5Mu0dZyWCzOcjJ/0U1LKLpi8hUHU6u20eDRykORRD0DtjA+yl6f/FZi8Q2wi1Jdipc3CoWr6KEVJFlzMfn4VTVmxsTH8C0wZTMfnb5VmfPP4IEotvlVXGCmDEPRy44td8UFux8HEogKhlwmiaZisj5coqgLzxpvMzmCSdT+9t2DSipcS0k5e/mRmzbp7Ihnv6QznP2fOYTBxC/evdPIgPHZ2Mq4xagNnCWb90jswQchTiEkis6OCiuwUd6MocD8FEzw4FtrInyyN1ssyo6EhVCseWxkz46X2BD/FIJaz39QSVQ/vMzCDL8J/spf0Pe3dDPMRjZFAwuYEBiNP8NXIM3QfjH0lXEpQJXGo3a+YHmUJ/gzMk5cjLPoQy9sXhq3FabkhZjBpe5PS7BX1fd9d98DUVDTjkYOoXRMYeKbwm30EpoAbJdSKvVIOg1A7yf742S3gIJnjD+aM81Zp5tClAjnKROS6DGKrHgdJi35R13IQTC2GUQsQRB9QonbIK1U+Ut4XFoBUUUswOfThRTdlEJH14avZhIPgkXx0DEzOp42hEeY8a1FxtcxativJSQfAxB0krPXKl4keMAQvix8y2dPyEBg5TKu+wlXJIBLWOUuyWuP7YIJeYFGnFvJBfP+5sshkT9UjYEQ7CbToPgBVipg+12ai3Yl2k98EY4t+It6i/bkNGsrbmixiA34fTG86gMVZJI1e+WbaS4zNZbvJb4FpzFBgWeQMly9wT7epxIFoNPz9lYFh1vd881zy/T6A4j7ab4HxG1dgWWanZLztA9qLecIffRsMfgkRs0qCgfTLnd9MucP1W2AMuOmJdeVy0rxBJ2n2yoXio2BAMdE1Fgtul921v1Oolf8eGE4kqlcLcIOE9T2XxWrg5tHvguG0+bqU21u7bQAvZqfaZt8Fs0myFWnRu/c+Q8b+98GAtURWMguMx/10MuhY8k0wGPpwusvEdGgD6e0mR9lHrWYSwc2Sq8SxfL6ZxPD2wVTeATC44ZFb5fajidK/C4bdoNsqW1xh+tXK9Ee2GWmgLIq+FuIkENn3u2Cq4/4MbLhlt8UAwOyWWAaHBABJRLdd1Ks/GTTo3L/22YoOCoDRnAF9vqzrBWm2e1VujvAhMNZFqOZFY2HnTzclp94H/kzM7/NZ9luN/qQCskN6ZgRjCoWmWnoPzkvGnmYujuqZEYwojWVqj1IX1uu+jeAFr63L8JXVXPKdSQxFCfAqj11tZnf0AzCDbNr+0MID2KvAkI1Avw9G3GGLHCXwxDmTJNtqAliYo85ZHG3ZxoYoxbbhrLAzDzlnATQLVGWXaNG74ZoYg3t2EIxd8H1DFNEpDJ61eZ7LLPojYC4l3ESjsA3Y5sNPtjRBYhlMORoDMLkHP7jwYi6iqbTP1ECqXUcfeZpjmQdnG6XmHm6DHi9MVbdz6cgowOHoTMz3ACZyDwiHEnu3Ox/erN1GiWgcAnMJHsCHUqXJOhYvgvsQrDLrlEGOBwFrPkeSCLZJZc9P5vdVmN3dh9MsQpzHwFxy3pbG94UqtuWepSRqH9k9e7TdIsT5QXg2g4imPJMUTWSm0B4da5ooP+w7LponugJvSu0lpQkfxKeMTwWKwI6DgfCxwYT0spSLWgy11QTGUKB9EIy4FoVK6XV9M8hgBJNPwQxCCgwB4cII131JGF0PuQDKKQAoASxdGPv+pqNl9nHgfKA7hJuNUnlt7xTAtW8fgrnUL+hkf1Ve27kZCTmHjjTGFWXqyZnD8EiDaStFcZFQsvjhMKXZZTyfmd5UwExfiNdgxmeLkzOXzoMwxegru/UghFYXe/5Kw/sGGH+gQR4qD4OG4vGpr5Yqx4/Gp7xtLvYpNaJhEubNw/OLCpjpT9kSzPSMvpTZ2Dfqz4MonnrgdlgOMsiy7jr5M/OLX4Gx6tCdaOGuwEN30Sw6z5wuIYx5zE+i9jp+s3nn70nzp+B/+pQj2yX/vkXlc+7CIKqWjO9tl/gwyFTWaouv/Ksn72Z5zcKBsuIf7FVi5cV9HiTXr7fLL/3SL/3SL/0f0X8Adqv8/6MRb8cAAAAASUVORK5CYII=;" vertex="1" parent="1">
          <mxGeometry x="1522.5699999999997" y="914.76" width="63.81" height="60.06" as="geometry" />
        </mxCell>
        <mxCell id="PL4-hdovq-cvh_rnjsfR-17" value="Order microservice" style="text;html=1;align=center;verticalAlign=middle;whiteSpace=wrap;rounded=0;" vertex="1" parent="1">
          <mxGeometry x="793.8299999999999" y="674" width="110" height="30" as="geometry" />
        </mxCell>
        <mxCell id="PL4-hdovq-cvh_rnjsfR-18" value="" style="edgeStyle=orthogonalEdgeStyle;rounded=0;orthogonalLoop=1;jettySize=auto;html=1;dashed=1;exitX=0;exitY=0.75;exitDx=0;exitDy=0;" edge="1" parent="1" source="PL4-hdovq-cvh_rnjsfR-15" target="PL4-hdovq-cvh_rnjsfR-42">
          <mxGeometry relative="1" as="geometry">
            <Array as="points">
              <mxPoint x="853" y="960" />
            </Array>
          </mxGeometry>
        </mxCell>
        <mxCell id="PL4-hdovq-cvh_rnjsfR-19" value="payment-events" style="text;html=1;align=center;verticalAlign=middle;whiteSpace=wrap;rounded=0;" vertex="1" parent="1">
          <mxGeometry x="1502.2599999999998" y="982.47" width="110" height="30" as="geometry" />
        </mxCell>
        <mxCell id="PL4-hdovq-cvh_rnjsfR-100" style="edgeStyle=orthogonalEdgeStyle;rounded=0;orthogonalLoop=1;jettySize=auto;html=1;dashed=1;" edge="1" parent="1" source="PL4-hdovq-cvh_rnjsfR-21" target="PL4-hdovq-cvh_rnjsfR-39">
          <mxGeometry relative="1" as="geometry">
            <Array as="points">
              <mxPoint x="950" y="750" />
              <mxPoint x="950" y="640" />
            </Array>
          </mxGeometry>
        </mxCell>
        <mxCell id="PL4-hdovq-cvh_rnjsfR-21" value="" style="shape=image;verticalLabelPosition=bottom;labelBackgroundColor=default;verticalAlign=top;aspect=fixed;imageAspect=0;image=data:image/png,iVBORw0KGgoAAAANSUhEUgAAAMwAAADACAMAAAB/Pny7AAAAbFBMVEX///8jHyAAAADz8/P4+Pj7+/sgHB0bFhdgX1+qqaqJiIkIAAAfGhvr6+sVEBGAf39NSkrf3t4tKytZWVkPBwmamprl5eWTkpLR0NCxsLB6eXmjoqIqJifIx8dzcnK8u7s6NzhoZ2dCP0BTUVIOhml2AAAPmElEQVR4nO1dB5PrKBK2kASyAgrGCraV//9/PAUaUPCbke/tDdqb3qqterLG8Bk60t1cLr+0R7YZX8Nb1Ff3PLB/ejL/HdnBtUMIMcqG//tZbP30hP4LMosGUQOIIHZPf3pKH1MaUgllJB/d4p+e1IcUV8g3VoS68qen9RGllbfBYhisy396Yh+Qme1hGdDcTsg3pUHE/EeBhvk/MHF/emqHKbh5fPYU3dx71lIE/z4f25Qwd9TkpmmZZtyieXEwc0+mPc2WLwxyhKJ0qc+55mQywOTLwDpF6Vez1vFf9c9N7BOq+S5D6iKkzbw0KDvXPrvOYDzHVJ+289Kg0Hz3d1qSO4NB94Vp+ZzBeO25VE3FwdSLDVXOYJhzLgvtwcEUCzA1B9OeC0zGwbiLbZbxbVYFPzWvj6hAXNur07ZvdA+i9pSDaC6Uh/VrEs2YPn9sXh+RmcxmJkmkoolv/FlzMqVpcaYxWANmZe4QbhXsSWY7iONU15BHzO0Zg74euXkxc7fhWHxy37xdhn3XNE3Xh1pa1KYLZrNP8St5YQruDXPWC1N0hJKJKNVzD8YNA+cM+8N/8A/yKlYv3hARnw6+G4o0FNy1L1xNhTALV68laPUKQ/rtNetJtmgwq5ZMXlO2eclH+m016/mieDlNSqulviwx3WAZ0WjovtU9VeFQr8mWL8SRJxH4MppDGw3t6jiLKI8EYsa6x2r72ELkGcxLmheDGA4m4f4X/ijZ+f0x+Zc4abNy7ZPFPCpgEOTci7rIHGAz0mi40QYKwvHnZ+3O7GBhqH+fnAI7vjeUL42m0bX7OGUUbrWHzRfGp8Ltsa7cqKOahtgnMw09tmCEaX2X4tpyZ/2qpyXwBzB3cHrURYijaWkw3VpwOtBbMM6sL1G2G8LRk2negnnN7LHS95kx7TPvoaU7+hYMl8MrU+z64mC0DK7dP1uZULuVsc20nFiD3urUXDmS5+IZKy1aiuYpU0RvxfLsnLvWNFINsVRTaZZeO6ScBfoM+U9VCgs9c5VLZuupZ6zaQWv7fnAjC7GnAh5cM4ghJm4VzcxIeh19ms/GM7bEiDvP0iofEPMwWHOdH6ZPsM18nVjGcnfdrmEZ6GPcannWIOnqUNo+B6v53r74H2llNdsu24sATKxDqtR89svPMaNJk1DGOQxTnRbmTRLAjAY77Uu4YQKOT2QIh+oUoSkXiSbEQ566DpiAU8aQsbeAesUAEoVfEHq1j7ZB20QajPq89ras5WsVa8pkKIwhLr2CO0XLWA2a7Jgar+NmSKt1seT0UC91vhUyNVSDqvlxPKgjuWiYoptWRlkGCgZ7S6H0lIEnomQ21D0mPNZMcKSV5h84BpgauSszXuw/Hy/EVZk5Udd1UZvptMNGykHesn5jkkQQjN1EYK00TrXaXzPdCWT8FJvPxLEN0s9d2SXukOxHi3q+NLTX0pHcUM/BoGznx7+CpfzSSMe/JzPi/I+uO5+CD4ORTib+Wwo6wjXGlmUGI18wjZ4RyxWlAAbvaYyTgQn4NsPe3srEYpudAozVA8/sJWJA7qZPTyEALg6A2QmVyVOM7hyiOeRgfH9ryVuCZapzKM0Sw4TXpplinKnhpYmsgTTMNjETbtH7bC3PUsCCmWpR2kFcZ4+qyupYu/SZCqxJtkouDxpwK32jEAxlp8WNopmYU2gm5WLhnHldrThneSQTGHzUlvNHQRHJSgHfQ32hl2ho5Yk4y/J5bmb+bBbJGAhNzkv8WOVoMBRqtTipDF74qHOfdV0/3WgdSfNR9IxzZxUZGPWpXtm1TyVIQREb43tq3BlyMShxnL0YLtpkcf0kma0aclnE90YML8whYLofw2UPnYRafFsHkJSZdnXebg4IqIeQ2Ie+sec+/BjF/Ts0bDx5GYseFw9RV7lVg0AW0G344CdpWJs1Z0+Ekln3BC6SUgx15aD/LbOOwKg29EoXNsPNVholmPzJ0wg+l4ZaAEVErNVL21zKiFGF8zEmjKq8EMAxYCs1q9nyI1DtKtPsok8wj2JiQl7dMneOC3CfqWqlniuGsK/XPpsoz6ppdn7Tuuvfmm+pZcKT7Wh6dD5TOCc1bHmAH3ys6lK4O+TpmAvIncu9fDN+6Lc6jXkaOqebvAVDd8HctU4Eegum291mD6155i0YXsvltepHJo/usmzzvg70FgzP0PCpus+K2en2E62sM0FvwYDSZMpBec4Xhka6HTvNNCfPbSM18nzDEzZOzsvSjHXNgB4U3yc+J427/amhaNigRjYuTpzBmbu/LkzRgcobeCm+h7r1BE0R4fARarqXzBWgjnYLE1RIDVZQ1KwYJ1cyHQiVMQKS6GZmDlbzts5nGRa07t6e0+MzzdIAByzdNljho+VWM0O6TZ7x2eOHpvyW8n4v8KJk/U0UuK9NNIBqZ2MGldxjGCt5ct0yKGY+u0XKE0GRdnvMvooQAEWMMBmBpStz2C7DZHhjwDu6oqjZuD0/T6mIkaMoGzMWHSrqfNZnA2Z5bxvqIW/w4O6lfsayfRUHMVk8roQVP0Ehsm3XCSvO6+Ja1HmsnXq5jOoQMhueMHOrgDqfN2aXjjgmghyZRe8Pd06q0dJU+RNxq8v31MAkpDucrVULtJ2oFuxRQauWcxybA0F3k+dCNl1P2arFhpBYsduq5WTdTaBVy/KAvGBnXBnBM0tt756TZ7g0I4m6BpCJdjZpBqfnSA0YXefwnmbHYl8TWAC+kqdVdn+2ALQlYZtR/zkziFlAuuOObaY5xZCpTWh7r8v6WSWizkeznPKvyRKpAJgZTde8ZKuW6mwLMzg0MhVgzPSXdT6nbHFaNtu+JWOR1slEGafa2KLBSM/g/tc0rM0qKkZ2E7fPQbFDlDofn1DjjPwiqOgTSunUUoquT85PSPXD6cc6H+ehWYbfZ2SmeZnH/wYkv/RLv/RLv/RLv/RL/36y/8cVTbbF6S9/bxDndV088xnNPzTIiqz6PtPf9RPzIoxeYz3T3KM+z/go/+xCmSGvomr+4pdaRe+hKYl7BmM/oVTrn10a6FdMo7/4nRmFCAEHc4Vg+/nAZExEB04PpmxkjsnpwTwgpkZAAJwXTArtHFjyjM1p9ucFw2sxDNqLSNp5wWRzJF0tYDovGNfjXyhDnOcFE3IwSp2crmCCNB4o/UPcD8Dc5DtHwZjBNMjhMvV9MLEgdXQ7HUyuNmqaqHWLPJgf8femf1njFHhh+sD/4vk+mFQMsvhpgrx226hrOie8lvOhacDf+yphYhdM6XC6uUqOQnytBtvRo4SMd2g24Xg1kBne5hen5Mu0dZyWCzOcjJ/0U1LKLpi8hUHU6u20eDRykORRD0DtjA+yl6f/FZi8Q2wi1Jdipc3CoWr6KEVJFlzMfn4VTVmxsTH8C0wZTMfnb5VmfPP4IEotvlVXGCmDEPRy44td8UFux8HEogKhlwmiaZisj5coqgLzxpvMzmCSdT+9t2DSipcS0k5e/mRmzbp7Ihnv6QznP2fOYTBxC/evdPIgPHZ2Mq4xagNnCWb90jswQchTiEkis6OCiuwUd6MocD8FEzw4FtrInyyN1ssyo6EhVCseWxkz46X2BD/FIJaz39QSVQ/vMzCDL8J/spf0Pe3dDPMRjZFAwuYEBiNP8NXIM3QfjH0lXEpQJXGo3a+YHmUJ/gzMk5cjLPoQy9sXhq3FabkhZjBpe5PS7BX1fd9d98DUVDTjkYOoXRMYeKbwm30EpoAbJdSKvVIOg1A7yf742S3gIJnjD+aM81Zp5tClAjnKROS6DGKrHgdJi35R13IQTC2GUQsQRB9QonbIK1U+Ut4XFoBUUUswOfThRTdlEJH14avZhIPgkXx0DEzOp42hEeY8a1FxtcxativJSQfAxB0krPXKl4keMAQvix8y2dPyEBg5TKu+wlXJIBLWOUuyWuP7YIJeYFGnFvJBfP+5sshkT9UjYEQ7CbToPgBVipg+12ai3Yl2k98EY4t+It6i/bkNGsrbmixiA34fTG86gMVZJI1e+WbaS4zNZbvJb4FpzFBgWeQMly9wT7epxIFoNPz9lYFh1vd881zy/T6A4j7ab4HxG1dgWWanZLztA9qLecIffRsMfgkRs0qCgfTLnd9MucP1W2AMuOmJdeVy0rxBJ2n2yoXio2BAMdE1Fgtul921v1Oolf8eGE4kqlcLcIOE9T2XxWrg5tHvguG0+bqU21u7bQAvZqfaZt8Fs0myFWnRu/c+Q8b+98GAtURWMguMx/10MuhY8k0wGPpwusvEdGgD6e0mR9lHrWYSwc2Sq8SxfL6ZxPD2wVTeATC44ZFb5fajidK/C4bdoNsqW1xh+tXK9Ee2GWmgLIq+FuIkENn3u2Cq4/4MbLhlt8UAwOyWWAaHBABJRLdd1Ks/GTTo3L/22YoOCoDRnAF9vqzrBWm2e1VujvAhMNZFqOZFY2HnTzclp94H/kzM7/NZ9luN/qQCskN6ZgRjCoWmWnoPzkvGnmYujuqZEYwojWVqj1IX1uu+jeAFr63L8JXVXPKdSQxFCfAqj11tZnf0AzCDbNr+0MID2KvAkI1Avw9G3GGLHCXwxDmTJNtqAliYo85ZHG3ZxoYoxbbhrLAzDzlnATQLVGWXaNG74ZoYg3t2EIxd8H1DFNEpDJ61eZ7LLPojYC4l3ESjsA3Y5sNPtjRBYhlMORoDMLkHP7jwYi6iqbTP1ECqXUcfeZpjmQdnG6XmHm6DHi9MVbdz6cgowOHoTMz3ACZyDwiHEnu3Ox/erN1GiWgcAnMJHsCHUqXJOhYvgvsQrDLrlEGOBwFrPkeSCLZJZc9P5vdVmN3dh9MsQpzHwFxy3pbG94UqtuWepSRqH9k9e7TdIsT5QXg2g4imPJMUTWSm0B4da5ooP+w7LponugJvSu0lpQkfxKeMTwWKwI6DgfCxwYT0spSLWgy11QTGUKB9EIy4FoVK6XV9M8hgBJNPwQxCCgwB4cII131JGF0PuQDKKQAoASxdGPv+pqNl9nHgfKA7hJuNUnlt7xTAtW8fgrnUL+hkf1Ve27kZCTmHjjTGFWXqyZnD8EiDaStFcZFQsvjhMKXZZTyfmd5UwExfiNdgxmeLkzOXzoMwxegru/UghFYXe/5Kw/sGGH+gQR4qD4OG4vGpr5Yqx4/Gp7xtLvYpNaJhEubNw/OLCpjpT9kSzPSMvpTZ2Dfqz4MonnrgdlgOMsiy7jr5M/OLX4Gx6tCdaOGuwEN30Sw6z5wuIYx5zE+i9jp+s3nn70nzp+B/+pQj2yX/vkXlc+7CIKqWjO9tl/gwyFTWaouv/Ksn72Z5zcKBsuIf7FVi5cV9HiTXr7fLL/3SL/3SL/0f0X8Adqv8/6MRb8cAAAAASUVORK5CYII=;" vertex="1" parent="1">
          <mxGeometry x="1519.69" y="740" width="68.37" height="64.35" as="geometry" />
        </mxCell>
        <mxCell id="PL4-hdovq-cvh_rnjsfR-22" value="order-events" style="text;html=1;align=center;verticalAlign=middle;whiteSpace=wrap;rounded=0;" vertex="1" parent="1">
          <mxGeometry x="1514.69" y="812" width="80.62" height="20" as="geometry" />
        </mxCell>
        <mxCell id="PL4-hdovq-cvh_rnjsfR-23" value="Product microservice" style="text;html=1;align=center;verticalAlign=middle;whiteSpace=wrap;rounded=0;" vertex="1" parent="1">
          <mxGeometry x="820.53" y="1545" width="110" height="30" as="geometry" />
        </mxCell>
        <mxCell id="PL4-hdovq-cvh_rnjsfR-24" value="Payment microservice" style="text;html=1;align=center;verticalAlign=middle;whiteSpace=wrap;rounded=0;" vertex="1" parent="1">
          <mxGeometry x="820.53" y="1150" width="130" height="25" as="geometry" />
        </mxCell>
        <mxCell id="PL4-hdovq-cvh_rnjsfR-25" value="User microservice" style="text;html=1;align=center;verticalAlign=middle;whiteSpace=wrap;rounded=0;" vertex="1" parent="1">
          <mxGeometry x="795.78" y="320" width="110" height="30" as="geometry" />
        </mxCell>
        <mxCell id="PL4-hdovq-cvh_rnjsfR-26" style="edgeStyle=orthogonalEdgeStyle;rounded=0;orthogonalLoop=1;jettySize=auto;html=1;entryX=1;entryY=0.75;entryDx=0;entryDy=0;dashed=1;" edge="1" parent="1" source="PL4-hdovq-cvh_rnjsfR-27">
          <mxGeometry relative="1" as="geometry">
            <Array as="points">
              <mxPoint x="1792" y="1290" />
              <mxPoint x="1792" y="670" />
            </Array>
            <mxPoint x="1676.63" y="670" as="targetPoint" />
          </mxGeometry>
        </mxCell>
        <mxCell id="PL4-hdovq-cvh_rnjsfR-27" value="" style="shape=image;verticalLabelPosition=bottom;labelBackgroundColor=default;verticalAlign=top;aspect=fixed;imageAspect=0;image=data:image/png,iVBORw0KGgoAAAANSUhEUgAAAMwAAADACAMAAAB/Pny7AAAAbFBMVEX///8jHyAAAADz8/P4+Pj7+/sgHB0bFhdgX1+qqaqJiIkIAAAfGhvr6+sVEBGAf39NSkrf3t4tKytZWVkPBwmamprl5eWTkpLR0NCxsLB6eXmjoqIqJifIx8dzcnK8u7s6NzhoZ2dCP0BTUVIOhml2AAAPmElEQVR4nO1dB5PrKBK2kASyAgrGCraV//9/PAUaUPCbke/tDdqb3qqterLG8Bk60t1cLr+0R7YZX8Nb1Ff3PLB/ejL/HdnBtUMIMcqG//tZbP30hP4LMosGUQOIIHZPf3pKH1MaUgllJB/d4p+e1IcUV8g3VoS68qen9RGllbfBYhisy396Yh+Qme1hGdDcTsg3pUHE/EeBhvk/MHF/emqHKbh5fPYU3dx71lIE/z4f25Qwd9TkpmmZZtyieXEwc0+mPc2WLwxyhKJ0qc+55mQywOTLwDpF6Vez1vFf9c9N7BOq+S5D6iKkzbw0KDvXPrvOYDzHVJ+289Kg0Hz3d1qSO4NB94Vp+ZzBeO25VE3FwdSLDVXOYJhzLgvtwcEUCzA1B9OeC0zGwbiLbZbxbVYFPzWvj6hAXNur07ZvdA+i9pSDaC6Uh/VrEs2YPn9sXh+RmcxmJkmkoolv/FlzMqVpcaYxWANmZe4QbhXsSWY7iONU15BHzO0Zg74euXkxc7fhWHxy37xdhn3XNE3Xh1pa1KYLZrNP8St5YQruDXPWC1N0hJKJKNVzD8YNA+cM+8N/8A/yKlYv3hARnw6+G4o0FNy1L1xNhTALV68laPUKQ/rtNetJtmgwq5ZMXlO2eclH+m016/mieDlNSqulviwx3WAZ0WjovtU9VeFQr8mWL8SRJxH4MppDGw3t6jiLKI8EYsa6x2r72ELkGcxLmheDGA4m4f4X/ijZ+f0x+Zc4abNy7ZPFPCpgEOTci7rIHGAz0mi40QYKwvHnZ+3O7GBhqH+fnAI7vjeUL42m0bX7OGUUbrWHzRfGp8Ltsa7cqKOahtgnMw09tmCEaX2X4tpyZ/2qpyXwBzB3cHrURYijaWkw3VpwOtBbMM6sL1G2G8LRk2negnnN7LHS95kx7TPvoaU7+hYMl8MrU+z64mC0DK7dP1uZULuVsc20nFiD3urUXDmS5+IZKy1aiuYpU0RvxfLsnLvWNFINsVRTaZZeO6ScBfoM+U9VCgs9c5VLZuupZ6zaQWv7fnAjC7GnAh5cM4ghJm4VzcxIeh19ms/GM7bEiDvP0iofEPMwWHOdH6ZPsM18nVjGcnfdrmEZ6GPcannWIOnqUNo+B6v53r74H2llNdsu24sATKxDqtR89svPMaNJk1DGOQxTnRbmTRLAjAY77Uu4YQKOT2QIh+oUoSkXiSbEQ566DpiAU8aQsbeAesUAEoVfEHq1j7ZB20QajPq89ras5WsVa8pkKIwhLr2CO0XLWA2a7Jgar+NmSKt1seT0UC91vhUyNVSDqvlxPKgjuWiYoptWRlkGCgZ7S6H0lIEnomQ21D0mPNZMcKSV5h84BpgauSszXuw/Hy/EVZk5Udd1UZvptMNGykHesn5jkkQQjN1EYK00TrXaXzPdCWT8FJvPxLEN0s9d2SXukOxHi3q+NLTX0pHcUM/BoGznx7+CpfzSSMe/JzPi/I+uO5+CD4ORTib+Wwo6wjXGlmUGI18wjZ4RyxWlAAbvaYyTgQn4NsPe3srEYpudAozVA8/sJWJA7qZPTyEALg6A2QmVyVOM7hyiOeRgfH9ryVuCZapzKM0Sw4TXpplinKnhpYmsgTTMNjETbtH7bC3PUsCCmWpR2kFcZ4+qyupYu/SZCqxJtkouDxpwK32jEAxlp8WNopmYU2gm5WLhnHldrThneSQTGHzUlvNHQRHJSgHfQ32hl2ho5Yk4y/J5bmb+bBbJGAhNzkv8WOVoMBRqtTipDF74qHOfdV0/3WgdSfNR9IxzZxUZGPWpXtm1TyVIQREb43tq3BlyMShxnL0YLtpkcf0kma0aclnE90YML8whYLofw2UPnYRafFsHkJSZdnXebg4IqIeQ2Ie+sec+/BjF/Ts0bDx5GYseFw9RV7lVg0AW0G344CdpWJs1Z0+Ekln3BC6SUgx15aD/LbOOwKg29EoXNsPNVholmPzJ0wg+l4ZaAEVErNVL21zKiFGF8zEmjKq8EMAxYCs1q9nyI1DtKtPsok8wj2JiQl7dMneOC3CfqWqlniuGsK/XPpsoz6ppdn7Tuuvfmm+pZcKT7Wh6dD5TOCc1bHmAH3ys6lK4O+TpmAvIncu9fDN+6Lc6jXkaOqebvAVDd8HctU4Eegum291mD6155i0YXsvltepHJo/usmzzvg70FgzP0PCpus+K2en2E62sM0FvwYDSZMpBec4Xhka6HTvNNCfPbSM18nzDEzZOzsvSjHXNgB4U3yc+J427/amhaNigRjYuTpzBmbu/LkzRgcobeCm+h7r1BE0R4fARarqXzBWgjnYLE1RIDVZQ1KwYJ1cyHQiVMQKS6GZmDlbzts5nGRa07t6e0+MzzdIAByzdNljho+VWM0O6TZ7x2eOHpvyW8n4v8KJk/U0UuK9NNIBqZ2MGldxjGCt5ct0yKGY+u0XKE0GRdnvMvooQAEWMMBmBpStz2C7DZHhjwDu6oqjZuD0/T6mIkaMoGzMWHSrqfNZnA2Z5bxvqIW/w4O6lfsayfRUHMVk8roQVP0Ehsm3XCSvO6+Ja1HmsnXq5jOoQMhueMHOrgDqfN2aXjjgmghyZRe8Pd06q0dJU+RNxq8v31MAkpDucrVULtJ2oFuxRQauWcxybA0F3k+dCNl1P2arFhpBYsduq5WTdTaBVy/KAvGBnXBnBM0tt756TZ7g0I4m6BpCJdjZpBqfnSA0YXefwnmbHYl8TWAC+kqdVdn+2ALQlYZtR/zkziFlAuuOObaY5xZCpTWh7r8v6WSWizkeznPKvyRKpAJgZTde8ZKuW6mwLMzg0MhVgzPSXdT6nbHFaNtu+JWOR1slEGafa2KLBSM/g/tc0rM0qKkZ2E7fPQbFDlDofn1DjjPwiqOgTSunUUoquT85PSPXD6cc6H+ehWYbfZ2SmeZnH/wYkv/RLv/RLv/RLv/RL/36y/8cVTbbF6S9/bxDndV088xnNPzTIiqz6PtPf9RPzIoxeYz3T3KM+z/go/+xCmSGvomr+4pdaRe+hKYl7BmM/oVTrn10a6FdMo7/4nRmFCAEHc4Vg+/nAZExEB04PpmxkjsnpwTwgpkZAAJwXTArtHFjyjM1p9ucFw2sxDNqLSNp5wWRzJF0tYDovGNfjXyhDnOcFE3IwSp2crmCCNB4o/UPcD8Dc5DtHwZjBNMjhMvV9MLEgdXQ7HUyuNmqaqHWLPJgf8femf1njFHhh+sD/4vk+mFQMsvhpgrx226hrOie8lvOhacDf+yphYhdM6XC6uUqOQnytBtvRo4SMd2g24Xg1kBne5hen5Mu0dZyWCzOcjJ/0U1LKLpi8hUHU6u20eDRykORRD0DtjA+yl6f/FZi8Q2wi1Jdipc3CoWr6KEVJFlzMfn4VTVmxsTH8C0wZTMfnb5VmfPP4IEotvlVXGCmDEPRy44td8UFux8HEogKhlwmiaZisj5coqgLzxpvMzmCSdT+9t2DSipcS0k5e/mRmzbp7Ihnv6QznP2fOYTBxC/evdPIgPHZ2Mq4xagNnCWb90jswQchTiEkis6OCiuwUd6MocD8FEzw4FtrInyyN1ssyo6EhVCseWxkz46X2BD/FIJaz39QSVQ/vMzCDL8J/spf0Pe3dDPMRjZFAwuYEBiNP8NXIM3QfjH0lXEpQJXGo3a+YHmUJ/gzMk5cjLPoQy9sXhq3FabkhZjBpe5PS7BX1fd9d98DUVDTjkYOoXRMYeKbwm30EpoAbJdSKvVIOg1A7yf742S3gIJnjD+aM81Zp5tClAjnKROS6DGKrHgdJi35R13IQTC2GUQsQRB9QonbIK1U+Ut4XFoBUUUswOfThRTdlEJH14avZhIPgkXx0DEzOp42hEeY8a1FxtcxativJSQfAxB0krPXKl4keMAQvix8y2dPyEBg5TKu+wlXJIBLWOUuyWuP7YIJeYFGnFvJBfP+5sshkT9UjYEQ7CbToPgBVipg+12ai3Yl2k98EY4t+It6i/bkNGsrbmixiA34fTG86gMVZJI1e+WbaS4zNZbvJb4FpzFBgWeQMly9wT7epxIFoNPz9lYFh1vd881zy/T6A4j7ab4HxG1dgWWanZLztA9qLecIffRsMfgkRs0qCgfTLnd9MucP1W2AMuOmJdeVy0rxBJ2n2yoXio2BAMdE1Fgtul921v1Oolf8eGE4kqlcLcIOE9T2XxWrg5tHvguG0+bqU21u7bQAvZqfaZt8Fs0myFWnRu/c+Q8b+98GAtURWMguMx/10MuhY8k0wGPpwusvEdGgD6e0mR9lHrWYSwc2Sq8SxfL6ZxPD2wVTeATC44ZFb5fajidK/C4bdoNsqW1xh+tXK9Ee2GWmgLIq+FuIkENn3u2Cq4/4MbLhlt8UAwOyWWAaHBABJRLdd1Ks/GTTo3L/22YoOCoDRnAF9vqzrBWm2e1VujvAhMNZFqOZFY2HnTzclp94H/kzM7/NZ9luN/qQCskN6ZgRjCoWmWnoPzkvGnmYujuqZEYwojWVqj1IX1uu+jeAFr63L8JXVXPKdSQxFCfAqj11tZnf0AzCDbNr+0MID2KvAkI1Avw9G3GGLHCXwxDmTJNtqAliYo85ZHG3ZxoYoxbbhrLAzDzlnATQLVGWXaNG74ZoYg3t2EIxd8H1DFNEpDJ61eZ7LLPojYC4l3ESjsA3Y5sNPtjRBYhlMORoDMLkHP7jwYi6iqbTP1ECqXUcfeZpjmQdnG6XmHm6DHi9MVbdz6cgowOHoTMz3ACZyDwiHEnu3Ox/erN1GiWgcAnMJHsCHUqXJOhYvgvsQrDLrlEGOBwFrPkeSCLZJZc9P5vdVmN3dh9MsQpzHwFxy3pbG94UqtuWepSRqH9k9e7TdIsT5QXg2g4imPJMUTWSm0B4da5ooP+w7LponugJvSu0lpQkfxKeMTwWKwI6DgfCxwYT0spSLWgy11QTGUKB9EIy4FoVK6XV9M8hgBJNPwQxCCgwB4cII131JGF0PuQDKKQAoASxdGPv+pqNl9nHgfKA7hJuNUnlt7xTAtW8fgrnUL+hkf1Ve27kZCTmHjjTGFWXqyZnD8EiDaStFcZFQsvjhMKXZZTyfmd5UwExfiNdgxmeLkzOXzoMwxegru/UghFYXe/5Kw/sGGH+gQR4qD4OG4vGpr5Yqx4/Gp7xtLvYpNaJhEubNw/OLCpjpT9kSzPSMvpTZ2Dfqz4MonnrgdlgOMsiy7jr5M/OLX4Gx6tCdaOGuwEN30Sw6z5wuIYx5zE+i9jp+s3nn70nzp+B/+pQj2yX/vkXlc+7CIKqWjO9tl/gwyFTWaouv/Ksn72Z5zcKBsuIf7FVi5cV9HiTXr7fLL/3SL/3SL/0f0X8Adqv8/6MRb8cAAAAASUVORK5CYII=;" vertex="1" parent="1">
          <mxGeometry x="1541.79" y="1250" width="79.69" height="75" as="geometry" />
        </mxCell>
        <mxCell id="PL4-hdovq-cvh_rnjsfR-28" value="" style="edgeStyle=orthogonalEdgeStyle;rounded=0;orthogonalLoop=1;jettySize=auto;html=1;strokeColor=default;startArrow=none;startFill=0;dashed=1;endArrow=classic;endFill=1;" edge="1" parent="1" source="PL4-hdovq-cvh_rnjsfR-29" target="PL4-hdovq-cvh_rnjsfR-37">
          <mxGeometry relative="1" as="geometry" />
        </mxCell>
        <mxCell id="PL4-hdovq-cvh_rnjsfR-29" value="product-events" style="text;html=1;align=center;verticalAlign=middle;whiteSpace=wrap;rounded=0;" vertex="1" parent="1">
          <mxGeometry x="1522.1" y="1335" width="110" height="10" as="geometry" />
        </mxCell>
        <mxCell id="PL4-hdovq-cvh_rnjsfR-30" value="" style="shape=image;verticalLabelPosition=bottom;labelBackgroundColor=default;verticalAlign=top;aspect=fixed;imageAspect=0;image=data:image/png,iVBORw0KGgoAAAANSUhEUgAAAMwAAADACAMAAAB/Pny7AAAAbFBMVEX///8jHyAAAADz8/P4+Pj7+/sgHB0bFhdgX1+qqaqJiIkIAAAfGhvr6+sVEBGAf39NSkrf3t4tKytZWVkPBwmamprl5eWTkpLR0NCxsLB6eXmjoqIqJifIx8dzcnK8u7s6NzhoZ2dCP0BTUVIOhml2AAAPmElEQVR4nO1dB5PrKBK2kASyAgrGCraV//9/PAUaUPCbke/tDdqb3qqterLG8Bk60t1cLr+0R7YZX8Nb1Ff3PLB/ejL/HdnBtUMIMcqG//tZbP30hP4LMosGUQOIIHZPf3pKH1MaUgllJB/d4p+e1IcUV8g3VoS68qen9RGllbfBYhisy396Yh+Qme1hGdDcTsg3pUHE/EeBhvk/MHF/emqHKbh5fPYU3dx71lIE/z4f25Qwd9TkpmmZZtyieXEwc0+mPc2WLwxyhKJ0qc+55mQywOTLwDpF6Vez1vFf9c9N7BOq+S5D6iKkzbw0KDvXPrvOYDzHVJ+289Kg0Hz3d1qSO4NB94Vp+ZzBeO25VE3FwdSLDVXOYJhzLgvtwcEUCzA1B9OeC0zGwbiLbZbxbVYFPzWvj6hAXNur07ZvdA+i9pSDaC6Uh/VrEs2YPn9sXh+RmcxmJkmkoolv/FlzMqVpcaYxWANmZe4QbhXsSWY7iONU15BHzO0Zg74euXkxc7fhWHxy37xdhn3XNE3Xh1pa1KYLZrNP8St5YQruDXPWC1N0hJKJKNVzD8YNA+cM+8N/8A/yKlYv3hARnw6+G4o0FNy1L1xNhTALV68laPUKQ/rtNetJtmgwq5ZMXlO2eclH+m016/mieDlNSqulviwx3WAZ0WjovtU9VeFQr8mWL8SRJxH4MppDGw3t6jiLKI8EYsa6x2r72ELkGcxLmheDGA4m4f4X/ijZ+f0x+Zc4abNy7ZPFPCpgEOTci7rIHGAz0mi40QYKwvHnZ+3O7GBhqH+fnAI7vjeUL42m0bX7OGUUbrWHzRfGp8Ltsa7cqKOahtgnMw09tmCEaX2X4tpyZ/2qpyXwBzB3cHrURYijaWkw3VpwOtBbMM6sL1G2G8LRk2negnnN7LHS95kx7TPvoaU7+hYMl8MrU+z64mC0DK7dP1uZULuVsc20nFiD3urUXDmS5+IZKy1aiuYpU0RvxfLsnLvWNFINsVRTaZZeO6ScBfoM+U9VCgs9c5VLZuupZ6zaQWv7fnAjC7GnAh5cM4ghJm4VzcxIeh19ms/GM7bEiDvP0iofEPMwWHOdH6ZPsM18nVjGcnfdrmEZ6GPcannWIOnqUNo+B6v53r74H2llNdsu24sATKxDqtR89svPMaNJk1DGOQxTnRbmTRLAjAY77Uu4YQKOT2QIh+oUoSkXiSbEQ566DpiAU8aQsbeAesUAEoVfEHq1j7ZB20QajPq89ras5WsVa8pkKIwhLr2CO0XLWA2a7Jgar+NmSKt1seT0UC91vhUyNVSDqvlxPKgjuWiYoptWRlkGCgZ7S6H0lIEnomQ21D0mPNZMcKSV5h84BpgauSszXuw/Hy/EVZk5Udd1UZvptMNGykHesn5jkkQQjN1EYK00TrXaXzPdCWT8FJvPxLEN0s9d2SXukOxHi3q+NLTX0pHcUM/BoGznx7+CpfzSSMe/JzPi/I+uO5+CD4ORTib+Wwo6wjXGlmUGI18wjZ4RyxWlAAbvaYyTgQn4NsPe3srEYpudAozVA8/sJWJA7qZPTyEALg6A2QmVyVOM7hyiOeRgfH9ryVuCZapzKM0Sw4TXpplinKnhpYmsgTTMNjETbtH7bC3PUsCCmWpR2kFcZ4+qyupYu/SZCqxJtkouDxpwK32jEAxlp8WNopmYU2gm5WLhnHldrThneSQTGHzUlvNHQRHJSgHfQ32hl2ho5Yk4y/J5bmb+bBbJGAhNzkv8WOVoMBRqtTipDF74qHOfdV0/3WgdSfNR9IxzZxUZGPWpXtm1TyVIQREb43tq3BlyMShxnL0YLtpkcf0kma0aclnE90YML8whYLofw2UPnYRafFsHkJSZdnXebg4IqIeQ2Ie+sec+/BjF/Ts0bDx5GYseFw9RV7lVg0AW0G344CdpWJs1Z0+Ekln3BC6SUgx15aD/LbOOwKg29EoXNsPNVholmPzJ0wg+l4ZaAEVErNVL21zKiFGF8zEmjKq8EMAxYCs1q9nyI1DtKtPsok8wj2JiQl7dMneOC3CfqWqlniuGsK/XPpsoz6ppdn7Tuuvfmm+pZcKT7Wh6dD5TOCc1bHmAH3ys6lK4O+TpmAvIncu9fDN+6Lc6jXkaOqebvAVDd8HctU4Eegum291mD6155i0YXsvltepHJo/usmzzvg70FgzP0PCpus+K2en2E62sM0FvwYDSZMpBec4Xhka6HTvNNCfPbSM18nzDEzZOzsvSjHXNgB4U3yc+J427/amhaNigRjYuTpzBmbu/LkzRgcobeCm+h7r1BE0R4fARarqXzBWgjnYLE1RIDVZQ1KwYJ1cyHQiVMQKS6GZmDlbzts5nGRa07t6e0+MzzdIAByzdNljho+VWM0O6TZ7x2eOHpvyW8n4v8KJk/U0UuK9NNIBqZ2MGldxjGCt5ct0yKGY+u0XKE0GRdnvMvooQAEWMMBmBpStz2C7DZHhjwDu6oqjZuD0/T6mIkaMoGzMWHSrqfNZnA2Z5bxvqIW/w4O6lfsayfRUHMVk8roQVP0Ehsm3XCSvO6+Ja1HmsnXq5jOoQMhueMHOrgDqfN2aXjjgmghyZRe8Pd06q0dJU+RNxq8v31MAkpDucrVULtJ2oFuxRQauWcxybA0F3k+dCNl1P2arFhpBYsduq5WTdTaBVy/KAvGBnXBnBM0tt756TZ7g0I4m6BpCJdjZpBqfnSA0YXefwnmbHYl8TWAC+kqdVdn+2ALQlYZtR/zkziFlAuuOObaY5xZCpTWh7r8v6WSWizkeznPKvyRKpAJgZTde8ZKuW6mwLMzg0MhVgzPSXdT6nbHFaNtu+JWOR1slEGafa2KLBSM/g/tc0rM0qKkZ2E7fPQbFDlDofn1DjjPwiqOgTSunUUoquT85PSPXD6cc6H+ehWYbfZ2SmeZnH/wYkv/RLv/RLv/RLv/RL/36y/8cVTbbF6S9/bxDndV088xnNPzTIiqz6PtPf9RPzIoxeYz3T3KM+z/go/+xCmSGvomr+4pdaRe+hKYl7BmM/oVTrn10a6FdMo7/4nRmFCAEHc4Vg+/nAZExEB04PpmxkjsnpwTwgpkZAAJwXTArtHFjyjM1p9ucFw2sxDNqLSNp5wWRzJF0tYDovGNfjXyhDnOcFE3IwSp2crmCCNB4o/UPcD8Dc5DtHwZjBNMjhMvV9MLEgdXQ7HUyuNmqaqHWLPJgf8femf1njFHhh+sD/4vk+mFQMsvhpgrx226hrOie8lvOhacDf+yphYhdM6XC6uUqOQnytBtvRo4SMd2g24Xg1kBne5hen5Mu0dZyWCzOcjJ/0U1LKLpi8hUHU6u20eDRykORRD0DtjA+yl6f/FZi8Q2wi1Jdipc3CoWr6KEVJFlzMfn4VTVmxsTH8C0wZTMfnb5VmfPP4IEotvlVXGCmDEPRy44td8UFux8HEogKhlwmiaZisj5coqgLzxpvMzmCSdT+9t2DSipcS0k5e/mRmzbp7Ihnv6QznP2fOYTBxC/evdPIgPHZ2Mq4xagNnCWb90jswQchTiEkis6OCiuwUd6MocD8FEzw4FtrInyyN1ssyo6EhVCseWxkz46X2BD/FIJaz39QSVQ/vMzCDL8J/spf0Pe3dDPMRjZFAwuYEBiNP8NXIM3QfjH0lXEpQJXGo3a+YHmUJ/gzMk5cjLPoQy9sXhq3FabkhZjBpe5PS7BX1fd9d98DUVDTjkYOoXRMYeKbwm30EpoAbJdSKvVIOg1A7yf742S3gIJnjD+aM81Zp5tClAjnKROS6DGKrHgdJi35R13IQTC2GUQsQRB9QonbIK1U+Ut4XFoBUUUswOfThRTdlEJH14avZhIPgkXx0DEzOp42hEeY8a1FxtcxativJSQfAxB0krPXKl4keMAQvix8y2dPyEBg5TKu+wlXJIBLWOUuyWuP7YIJeYFGnFvJBfP+5sshkT9UjYEQ7CbToPgBVipg+12ai3Yl2k98EY4t+It6i/bkNGsrbmixiA34fTG86gMVZJI1e+WbaS4zNZbvJb4FpzFBgWeQMly9wT7epxIFoNPz9lYFh1vd881zy/T6A4j7ab4HxG1dgWWanZLztA9qLecIffRsMfgkRs0qCgfTLnd9MucP1W2AMuOmJdeVy0rxBJ2n2yoXio2BAMdE1Fgtul921v1Oolf8eGE4kqlcLcIOE9T2XxWrg5tHvguG0+bqU21u7bQAvZqfaZt8Fs0myFWnRu/c+Q8b+98GAtURWMguMx/10MuhY8k0wGPpwusvEdGgD6e0mR9lHrWYSwc2Sq8SxfL6ZxPD2wVTeATC44ZFb5fajidK/C4bdoNsqW1xh+tXK9Ee2GWmgLIq+FuIkENn3u2Cq4/4MbLhlt8UAwOyWWAaHBABJRLdd1Ks/GTTo3L/22YoOCoDRnAF9vqzrBWm2e1VujvAhMNZFqOZFY2HnTzclp94H/kzM7/NZ9luN/qQCskN6ZgRjCoWmWnoPzkvGnmYujuqZEYwojWVqj1IX1uu+jeAFr63L8JXVXPKdSQxFCfAqj11tZnf0AzCDbNr+0MID2KvAkI1Avw9G3GGLHCXwxDmTJNtqAliYo85ZHG3ZxoYoxbbhrLAzDzlnATQLVGWXaNG74ZoYg3t2EIxd8H1DFNEpDJ61eZ7LLPojYC4l3ESjsA3Y5sNPtjRBYhlMORoDMLkHP7jwYi6iqbTP1ECqXUcfeZpjmQdnG6XmHm6DHi9MVbdz6cgowOHoTMz3ACZyDwiHEnu3Ox/erN1GiWgcAnMJHsCHUqXJOhYvgvsQrDLrlEGOBwFrPkeSCLZJZc9P5vdVmN3dh9MsQpzHwFxy3pbG94UqtuWepSRqH9k9e7TdIsT5QXg2g4imPJMUTWSm0B4da5ooP+w7LponugJvSu0lpQkfxKeMTwWKwI6DgfCxwYT0spSLWgy11QTGUKB9EIy4FoVK6XV9M8hgBJNPwQxCCgwB4cII131JGF0PuQDKKQAoASxdGPv+pqNl9nHgfKA7hJuNUnlt7xTAtW8fgrnUL+hkf1Ve27kZCTmHjjTGFWXqyZnD8EiDaStFcZFQsvjhMKXZZTyfmd5UwExfiNdgxmeLkzOXzoMwxegru/UghFYXe/5Kw/sGGH+gQR4qD4OG4vGpr5Yqx4/Gp7xtLvYpNaJhEubNw/OLCpjpT9kSzPSMvpTZ2Dfqz4MonnrgdlgOMsiy7jr5M/OLX4Gx6tCdaOGuwEN30Sw6z5wuIYx5zE+i9jp+s3nn70nzp+B/+pQj2yX/vkXlc+7CIKqWjO9tl/gwyFTWaouv/Ksn72Z5zcKBsuIf7FVi5cV9HiTXr7fLL/3SL/3SL/0f0X8Adqv8/6MRb8cAAAAASUVORK5CYII=;" vertex="1" parent="1">
          <mxGeometry x="1534.13" y="1060.06" width="85" height="80" as="geometry" />
        </mxCell>
        <mxCell id="PL4-hdovq-cvh_rnjsfR-31" value="logs.payment-events" style="text;html=1;align=center;verticalAlign=middle;whiteSpace=wrap;rounded=0;" vertex="1" parent="1">
          <mxGeometry x="1517.4099999999999" y="1140.06" width="118.44" height="30" as="geometry" />
        </mxCell>
        <mxCell id="PL4-hdovq-cvh_rnjsfR-32" value="" style="shape=image;verticalLabelPosition=bottom;labelBackgroundColor=default;verticalAlign=top;aspect=fixed;imageAspect=0;image=data:image/png,iVBORw0KGgoAAAANSUhEUgAAAMwAAADACAMAAAB/Pny7AAAAbFBMVEX///8jHyAAAADz8/P4+Pj7+/sgHB0bFhdgX1+qqaqJiIkIAAAfGhvr6+sVEBGAf39NSkrf3t4tKytZWVkPBwmamprl5eWTkpLR0NCxsLB6eXmjoqIqJifIx8dzcnK8u7s6NzhoZ2dCP0BTUVIOhml2AAAPmElEQVR4nO1dB5PrKBK2kASyAgrGCraV//9/PAUaUPCbke/tDdqb3qqterLG8Bk60t1cLr+0R7YZX8Nb1Ff3PLB/ejL/HdnBtUMIMcqG//tZbP30hP4LMosGUQOIIHZPf3pKH1MaUgllJB/d4p+e1IcUV8g3VoS68qen9RGllbfBYhisy396Yh+Qme1hGdDcTsg3pUHE/EeBhvk/MHF/emqHKbh5fPYU3dx71lIE/z4f25Qwd9TkpmmZZtyieXEwc0+mPc2WLwxyhKJ0qc+55mQywOTLwDpF6Vez1vFf9c9N7BOq+S5D6iKkzbw0KDvXPrvOYDzHVJ+289Kg0Hz3d1qSO4NB94Vp+ZzBeO25VE3FwdSLDVXOYJhzLgvtwcEUCzA1B9OeC0zGwbiLbZbxbVYFPzWvj6hAXNur07ZvdA+i9pSDaC6Uh/VrEs2YPn9sXh+RmcxmJkmkoolv/FlzMqVpcaYxWANmZe4QbhXsSWY7iONU15BHzO0Zg74euXkxc7fhWHxy37xdhn3XNE3Xh1pa1KYLZrNP8St5YQruDXPWC1N0hJKJKNVzD8YNA+cM+8N/8A/yKlYv3hARnw6+G4o0FNy1L1xNhTALV68laPUKQ/rtNetJtmgwq5ZMXlO2eclH+m016/mieDlNSqulviwx3WAZ0WjovtU9VeFQr8mWL8SRJxH4MppDGw3t6jiLKI8EYsa6x2r72ELkGcxLmheDGA4m4f4X/ijZ+f0x+Zc4abNy7ZPFPCpgEOTci7rIHGAz0mi40QYKwvHnZ+3O7GBhqH+fnAI7vjeUL42m0bX7OGUUbrWHzRfGp8Ltsa7cqKOahtgnMw09tmCEaX2X4tpyZ/2qpyXwBzB3cHrURYijaWkw3VpwOtBbMM6sL1G2G8LRk2negnnN7LHS95kx7TPvoaU7+hYMl8MrU+z64mC0DK7dP1uZULuVsc20nFiD3urUXDmS5+IZKy1aiuYpU0RvxfLsnLvWNFINsVRTaZZeO6ScBfoM+U9VCgs9c5VLZuupZ6zaQWv7fnAjC7GnAh5cM4ghJm4VzcxIeh19ms/GM7bEiDvP0iofEPMwWHOdH6ZPsM18nVjGcnfdrmEZ6GPcannWIOnqUNo+B6v53r74H2llNdsu24sATKxDqtR89svPMaNJk1DGOQxTnRbmTRLAjAY77Uu4YQKOT2QIh+oUoSkXiSbEQ566DpiAU8aQsbeAesUAEoVfEHq1j7ZB20QajPq89ras5WsVa8pkKIwhLr2CO0XLWA2a7Jgar+NmSKt1seT0UC91vhUyNVSDqvlxPKgjuWiYoptWRlkGCgZ7S6H0lIEnomQ21D0mPNZMcKSV5h84BpgauSszXuw/Hy/EVZk5Udd1UZvptMNGykHesn5jkkQQjN1EYK00TrXaXzPdCWT8FJvPxLEN0s9d2SXukOxHi3q+NLTX0pHcUM/BoGznx7+CpfzSSMe/JzPi/I+uO5+CD4ORTib+Wwo6wjXGlmUGI18wjZ4RyxWlAAbvaYyTgQn4NsPe3srEYpudAozVA8/sJWJA7qZPTyEALg6A2QmVyVOM7hyiOeRgfH9ryVuCZapzKM0Sw4TXpplinKnhpYmsgTTMNjETbtH7bC3PUsCCmWpR2kFcZ4+qyupYu/SZCqxJtkouDxpwK32jEAxlp8WNopmYU2gm5WLhnHldrThneSQTGHzUlvNHQRHJSgHfQ32hl2ho5Yk4y/J5bmb+bBbJGAhNzkv8WOVoMBRqtTipDF74qHOfdV0/3WgdSfNR9IxzZxUZGPWpXtm1TyVIQREb43tq3BlyMShxnL0YLtpkcf0kma0aclnE90YML8whYLofw2UPnYRafFsHkJSZdnXebg4IqIeQ2Ie+sec+/BjF/Ts0bDx5GYseFw9RV7lVg0AW0G344CdpWJs1Z0+Ekln3BC6SUgx15aD/LbOOwKg29EoXNsPNVholmPzJ0wg+l4ZaAEVErNVL21zKiFGF8zEmjKq8EMAxYCs1q9nyI1DtKtPsok8wj2JiQl7dMneOC3CfqWqlniuGsK/XPpsoz6ppdn7Tuuvfmm+pZcKT7Wh6dD5TOCc1bHmAH3ys6lK4O+TpmAvIncu9fDN+6Lc6jXkaOqebvAVDd8HctU4Eegum291mD6155i0YXsvltepHJo/usmzzvg70FgzP0PCpus+K2en2E62sM0FvwYDSZMpBec4Xhka6HTvNNCfPbSM18nzDEzZOzsvSjHXNgB4U3yc+J427/amhaNigRjYuTpzBmbu/LkzRgcobeCm+h7r1BE0R4fARarqXzBWgjnYLE1RIDVZQ1KwYJ1cyHQiVMQKS6GZmDlbzts5nGRa07t6e0+MzzdIAByzdNljho+VWM0O6TZ7x2eOHpvyW8n4v8KJk/U0UuK9NNIBqZ2MGldxjGCt5ct0yKGY+u0XKE0GRdnvMvooQAEWMMBmBpStz2C7DZHhjwDu6oqjZuD0/T6mIkaMoGzMWHSrqfNZnA2Z5bxvqIW/w4O6lfsayfRUHMVk8roQVP0Ehsm3XCSvO6+Ja1HmsnXq5jOoQMhueMHOrgDqfN2aXjjgmghyZRe8Pd06q0dJU+RNxq8v31MAkpDucrVULtJ2oFuxRQauWcxybA0F3k+dCNl1P2arFhpBYsduq5WTdTaBVy/KAvGBnXBnBM0tt756TZ7g0I4m6BpCJdjZpBqfnSA0YXefwnmbHYl8TWAC+kqdVdn+2ALQlYZtR/zkziFlAuuOObaY5xZCpTWh7r8v6WSWizkeznPKvyRKpAJgZTde8ZKuW6mwLMzg0MhVgzPSXdT6nbHFaNtu+JWOR1slEGafa2KLBSM/g/tc0rM0qKkZ2E7fPQbFDlDofn1DjjPwiqOgTSunUUoquT85PSPXD6cc6H+ehWYbfZ2SmeZnH/wYkv/RLv/RLv/RLv/RL/36y/8cVTbbF6S9/bxDndV088xnNPzTIiqz6PtPf9RPzIoxeYz3T3KM+z/go/+xCmSGvomr+4pdaRe+hKYl7BmM/oVTrn10a6FdMo7/4nRmFCAEHc4Vg+/nAZExEB04PpmxkjsnpwTwgpkZAAJwXTArtHFjyjM1p9ucFw2sxDNqLSNp5wWRzJF0tYDovGNfjXyhDnOcFE3IwSp2crmCCNB4o/UPcD8Dc5DtHwZjBNMjhMvV9MLEgdXQ7HUyuNmqaqHWLPJgf8femf1njFHhh+sD/4vk+mFQMsvhpgrx226hrOie8lvOhacDf+yphYhdM6XC6uUqOQnytBtvRo4SMd2g24Xg1kBne5hen5Mu0dZyWCzOcjJ/0U1LKLpi8hUHU6u20eDRykORRD0DtjA+yl6f/FZi8Q2wi1Jdipc3CoWr6KEVJFlzMfn4VTVmxsTH8C0wZTMfnb5VmfPP4IEotvlVXGCmDEPRy44td8UFux8HEogKhlwmiaZisj5coqgLzxpvMzmCSdT+9t2DSipcS0k5e/mRmzbp7Ihnv6QznP2fOYTBxC/evdPIgPHZ2Mq4xagNnCWb90jswQchTiEkis6OCiuwUd6MocD8FEzw4FtrInyyN1ssyo6EhVCseWxkz46X2BD/FIJaz39QSVQ/vMzCDL8J/spf0Pe3dDPMRjZFAwuYEBiNP8NXIM3QfjH0lXEpQJXGo3a+YHmUJ/gzMk5cjLPoQy9sXhq3FabkhZjBpe5PS7BX1fd9d98DUVDTjkYOoXRMYeKbwm30EpoAbJdSKvVIOg1A7yf742S3gIJnjD+aM81Zp5tClAjnKROS6DGKrHgdJi35R13IQTC2GUQsQRB9QonbIK1U+Ut4XFoBUUUswOfThRTdlEJH14avZhIPgkXx0DEzOp42hEeY8a1FxtcxativJSQfAxB0krPXKl4keMAQvix8y2dPyEBg5TKu+wlXJIBLWOUuyWuP7YIJeYFGnFvJBfP+5sshkT9UjYEQ7CbToPgBVipg+12ai3Yl2k98EY4t+It6i/bkNGsrbmixiA34fTG86gMVZJI1e+WbaS4zNZbvJb4FpzFBgWeQMly9wT7epxIFoNPz9lYFh1vd881zy/T6A4j7ab4HxG1dgWWanZLztA9qLecIffRsMfgkRs0qCgfTLnd9MucP1W2AMuOmJdeVy0rxBJ2n2yoXio2BAMdE1Fgtul921v1Oolf8eGE4kqlcLcIOE9T2XxWrg5tHvguG0+bqU21u7bQAvZqfaZt8Fs0myFWnRu/c+Q8b+98GAtURWMguMx/10MuhY8k0wGPpwusvEdGgD6e0mR9lHrWYSwc2Sq8SxfL6ZxPD2wVTeATC44ZFb5fajidK/C4bdoNsqW1xh+tXK9Ee2GWmgLIq+FuIkENn3u2Cq4/4MbLhlt8UAwOyWWAaHBABJRLdd1Ks/GTTo3L/22YoOCoDRnAF9vqzrBWm2e1VujvAhMNZFqOZFY2HnTzclp94H/kzM7/NZ9luN/qQCskN6ZgRjCoWmWnoPzkvGnmYujuqZEYwojWVqj1IX1uu+jeAFr63L8JXVXPKdSQxFCfAqj11tZnf0AzCDbNr+0MID2KvAkI1Avw9G3GGLHCXwxDmTJNtqAliYo85ZHG3ZxoYoxbbhrLAzDzlnATQLVGWXaNG74ZoYg3t2EIxd8H1DFNEpDJ61eZ7LLPojYC4l3ESjsA3Y5sNPtjRBYhlMORoDMLkHP7jwYi6iqbTP1ECqXUcfeZpjmQdnG6XmHm6DHi9MVbdz6cgowOHoTMz3ACZyDwiHEnu3Ox/erN1GiWgcAnMJHsCHUqXJOhYvgvsQrDLrlEGOBwFrPkeSCLZJZc9P5vdVmN3dh9MsQpzHwFxy3pbG94UqtuWepSRqH9k9e7TdIsT5QXg2g4imPJMUTWSm0B4da5ooP+w7LponugJvSu0lpQkfxKeMTwWKwI6DgfCxwYT0spSLWgy11QTGUKB9EIy4FoVK6XV9M8hgBJNPwQxCCgwB4cII131JGF0PuQDKKQAoASxdGPv+pqNl9nHgfKA7hJuNUnlt7xTAtW8fgrnUL+hkf1Ve27kZCTmHjjTGFWXqyZnD8EiDaStFcZFQsvjhMKXZZTyfmd5UwExfiNdgxmeLkzOXzoMwxegru/UghFYXe/5Kw/sGGH+gQR4qD4OG4vGpr5Yqx4/Gp7xtLvYpNaJhEubNw/OLCpjpT9kSzPSMvpTZ2Dfqz4MonnrgdlgOMsiy7jr5M/OLX4Gx6tCdaOGuwEN30Sw6z5wuIYx5zE+i9jp+s3nn70nzp+B/+pQj2yX/vkXlc+7CIKqWjO9tl/gwyFTWaouv/Ksn72Z5zcKBsuIf7FVi5cV9HiTXr7fLL/3SL/3SL/0f0X8Adqv8/6MRb8cAAAAASUVORK5CYII=;" vertex="1" parent="1">
          <mxGeometry x="1552.4099999999999" y="1456.5" width="79.69" height="75" as="geometry" />
        </mxCell>
        <mxCell id="PL4-hdovq-cvh_rnjsfR-33" value="logs.product-events" style="text;html=1;align=center;verticalAlign=middle;whiteSpace=wrap;rounded=0;" vertex="1" parent="1">
          <mxGeometry x="1552.4099999999999" y="1560" width="110" height="30" as="geometry" />
        </mxCell>
        <mxCell id="PL4-hdovq-cvh_rnjsfR-34" value="" style="shape=image;verticalLabelPosition=bottom;labelBackgroundColor=default;verticalAlign=top;aspect=fixed;imageAspect=0;image=data:image/png,iVBORw0KGgoAAAANSUhEUgAAAMwAAADACAMAAAB/Pny7AAAAbFBMVEX///8jHyAAAADz8/P4+Pj7+/sgHB0bFhdgX1+qqaqJiIkIAAAfGhvr6+sVEBGAf39NSkrf3t4tKytZWVkPBwmamprl5eWTkpLR0NCxsLB6eXmjoqIqJifIx8dzcnK8u7s6NzhoZ2dCP0BTUVIOhml2AAAPmElEQVR4nO1dB5PrKBK2kASyAgrGCraV//9/PAUaUPCbke/tDdqb3qqterLG8Bk60t1cLr+0R7YZX8Nb1Ff3PLB/ejL/HdnBtUMIMcqG//tZbP30hP4LMosGUQOIIHZPf3pKH1MaUgllJB/d4p+e1IcUV8g3VoS68qen9RGllbfBYhisy396Yh+Qme1hGdDcTsg3pUHE/EeBhvk/MHF/emqHKbh5fPYU3dx71lIE/z4f25Qwd9TkpmmZZtyieXEwc0+mPc2WLwxyhKJ0qc+55mQywOTLwDpF6Vez1vFf9c9N7BOq+S5D6iKkzbw0KDvXPrvOYDzHVJ+289Kg0Hz3d1qSO4NB94Vp+ZzBeO25VE3FwdSLDVXOYJhzLgvtwcEUCzA1B9OeC0zGwbiLbZbxbVYFPzWvj6hAXNur07ZvdA+i9pSDaC6Uh/VrEs2YPn9sXh+RmcxmJkmkoolv/FlzMqVpcaYxWANmZe4QbhXsSWY7iONU15BHzO0Zg74euXkxc7fhWHxy37xdhn3XNE3Xh1pa1KYLZrNP8St5YQruDXPWC1N0hJKJKNVzD8YNA+cM+8N/8A/yKlYv3hARnw6+G4o0FNy1L1xNhTALV68laPUKQ/rtNetJtmgwq5ZMXlO2eclH+m016/mieDlNSqulviwx3WAZ0WjovtU9VeFQr8mWL8SRJxH4MppDGw3t6jiLKI8EYsa6x2r72ELkGcxLmheDGA4m4f4X/ijZ+f0x+Zc4abNy7ZPFPCpgEOTci7rIHGAz0mi40QYKwvHnZ+3O7GBhqH+fnAI7vjeUL42m0bX7OGUUbrWHzRfGp8Ltsa7cqKOahtgnMw09tmCEaX2X4tpyZ/2qpyXwBzB3cHrURYijaWkw3VpwOtBbMM6sL1G2G8LRk2negnnN7LHS95kx7TPvoaU7+hYMl8MrU+z64mC0DK7dP1uZULuVsc20nFiD3urUXDmS5+IZKy1aiuYpU0RvxfLsnLvWNFINsVRTaZZeO6ScBfoM+U9VCgs9c5VLZuupZ6zaQWv7fnAjC7GnAh5cM4ghJm4VzcxIeh19ms/GM7bEiDvP0iofEPMwWHOdH6ZPsM18nVjGcnfdrmEZ6GPcannWIOnqUNo+B6v53r74H2llNdsu24sATKxDqtR89svPMaNJk1DGOQxTnRbmTRLAjAY77Uu4YQKOT2QIh+oUoSkXiSbEQ566DpiAU8aQsbeAesUAEoVfEHq1j7ZB20QajPq89ras5WsVa8pkKIwhLr2CO0XLWA2a7Jgar+NmSKt1seT0UC91vhUyNVSDqvlxPKgjuWiYoptWRlkGCgZ7S6H0lIEnomQ21D0mPNZMcKSV5h84BpgauSszXuw/Hy/EVZk5Udd1UZvptMNGykHesn5jkkQQjN1EYK00TrXaXzPdCWT8FJvPxLEN0s9d2SXukOxHi3q+NLTX0pHcUM/BoGznx7+CpfzSSMe/JzPi/I+uO5+CD4ORTib+Wwo6wjXGlmUGI18wjZ4RyxWlAAbvaYyTgQn4NsPe3srEYpudAozVA8/sJWJA7qZPTyEALg6A2QmVyVOM7hyiOeRgfH9ryVuCZapzKM0Sw4TXpplinKnhpYmsgTTMNjETbtH7bC3PUsCCmWpR2kFcZ4+qyupYu/SZCqxJtkouDxpwK32jEAxlp8WNopmYU2gm5WLhnHldrThneSQTGHzUlvNHQRHJSgHfQ32hl2ho5Yk4y/J5bmb+bBbJGAhNzkv8WOVoMBRqtTipDF74qHOfdV0/3WgdSfNR9IxzZxUZGPWpXtm1TyVIQREb43tq3BlyMShxnL0YLtpkcf0kma0aclnE90YML8whYLofw2UPnYRafFsHkJSZdnXebg4IqIeQ2Ie+sec+/BjF/Ts0bDx5GYseFw9RV7lVg0AW0G344CdpWJs1Z0+Ekln3BC6SUgx15aD/LbOOwKg29EoXNsPNVholmPzJ0wg+l4ZaAEVErNVL21zKiFGF8zEmjKq8EMAxYCs1q9nyI1DtKtPsok8wj2JiQl7dMneOC3CfqWqlniuGsK/XPpsoz6ppdn7Tuuvfmm+pZcKT7Wh6dD5TOCc1bHmAH3ys6lK4O+TpmAvIncu9fDN+6Lc6jXkaOqebvAVDd8HctU4Eegum291mD6155i0YXsvltepHJo/usmzzvg70FgzP0PCpus+K2en2E62sM0FvwYDSZMpBec4Xhka6HTvNNCfPbSM18nzDEzZOzsvSjHXNgB4U3yc+J427/amhaNigRjYuTpzBmbu/LkzRgcobeCm+h7r1BE0R4fARarqXzBWgjnYLE1RIDVZQ1KwYJ1cyHQiVMQKS6GZmDlbzts5nGRa07t6e0+MzzdIAByzdNljho+VWM0O6TZ7x2eOHpvyW8n4v8KJk/U0UuK9NNIBqZ2MGldxjGCt5ct0yKGY+u0XKE0GRdnvMvooQAEWMMBmBpStz2C7DZHhjwDu6oqjZuD0/T6mIkaMoGzMWHSrqfNZnA2Z5bxvqIW/w4O6lfsayfRUHMVk8roQVP0Ehsm3XCSvO6+Ja1HmsnXq5jOoQMhueMHOrgDqfN2aXjjgmghyZRe8Pd06q0dJU+RNxq8v31MAkpDucrVULtJ2oFuxRQauWcxybA0F3k+dCNl1P2arFhpBYsduq5WTdTaBVy/KAvGBnXBnBM0tt756TZ7g0I4m6BpCJdjZpBqfnSA0YXefwnmbHYl8TWAC+kqdVdn+2ALQlYZtR/zkziFlAuuOObaY5xZCpTWh7r8v6WSWizkeznPKvyRKpAJgZTde8ZKuW6mwLMzg0MhVgzPSXdT6nbHFaNtu+JWOR1slEGafa2KLBSM/g/tc0rM0qKkZ2E7fPQbFDlDofn1DjjPwiqOgTSunUUoquT85PSPXD6cc6H+ehWYbfZ2SmeZnH/wYkv/RLv/RLv/RLv/RL/36y/8cVTbbF6S9/bxDndV088xnNPzTIiqz6PtPf9RPzIoxeYz3T3KM+z/go/+xCmSGvomr+4pdaRe+hKYl7BmM/oVTrn10a6FdMo7/4nRmFCAEHc4Vg+/nAZExEB04PpmxkjsnpwTwgpkZAAJwXTArtHFjyjM1p9ucFw2sxDNqLSNp5wWRzJF0tYDovGNfjXyhDnOcFE3IwSp2crmCCNB4o/UPcD8Dc5DtHwZjBNMjhMvV9MLEgdXQ7HUyuNmqaqHWLPJgf8femf1njFHhh+sD/4vk+mFQMsvhpgrx226hrOie8lvOhacDf+yphYhdM6XC6uUqOQnytBtvRo4SMd2g24Xg1kBne5hen5Mu0dZyWCzOcjJ/0U1LKLpi8hUHU6u20eDRykORRD0DtjA+yl6f/FZi8Q2wi1Jdipc3CoWr6KEVJFlzMfn4VTVmxsTH8C0wZTMfnb5VmfPP4IEotvlVXGCmDEPRy44td8UFux8HEogKhlwmiaZisj5coqgLzxpvMzmCSdT+9t2DSipcS0k5e/mRmzbp7Ihnv6QznP2fOYTBxC/evdPIgPHZ2Mq4xagNnCWb90jswQchTiEkis6OCiuwUd6MocD8FEzw4FtrInyyN1ssyo6EhVCseWxkz46X2BD/FIJaz39QSVQ/vMzCDL8J/spf0Pe3dDPMRjZFAwuYEBiNP8NXIM3QfjH0lXEpQJXGo3a+YHmUJ/gzMk5cjLPoQy9sXhq3FabkhZjBpe5PS7BX1fd9d98DUVDTjkYOoXRMYeKbwm30EpoAbJdSKvVIOg1A7yf742S3gIJnjD+aM81Zp5tClAjnKROS6DGKrHgdJi35R13IQTC2GUQsQRB9QonbIK1U+Ut4XFoBUUUswOfThRTdlEJH14avZhIPgkXx0DEzOp42hEeY8a1FxtcxativJSQfAxB0krPXKl4keMAQvix8y2dPyEBg5TKu+wlXJIBLWOUuyWuP7YIJeYFGnFvJBfP+5sshkT9UjYEQ7CbToPgBVipg+12ai3Yl2k98EY4t+It6i/bkNGsrbmixiA34fTG86gMVZJI1e+WbaS4zNZbvJb4FpzFBgWeQMly9wT7epxIFoNPz9lYFh1vd881zy/T6A4j7ab4HxG1dgWWanZLztA9qLecIffRsMfgkRs0qCgfTLnd9MucP1W2AMuOmJdeVy0rxBJ2n2yoXio2BAMdE1Fgtul921v1Oolf8eGE4kqlcLcIOE9T2XxWrg5tHvguG0+bqU21u7bQAvZqfaZt8Fs0myFWnRu/c+Q8b+98GAtURWMguMx/10MuhY8k0wGPpwusvEdGgD6e0mR9lHrWYSwc2Sq8SxfL6ZxPD2wVTeATC44ZFb5fajidK/C4bdoNsqW1xh+tXK9Ee2GWmgLIq+FuIkENn3u2Cq4/4MbLhlt8UAwOyWWAaHBABJRLdd1Ks/GTTo3L/22YoOCoDRnAF9vqzrBWm2e1VujvAhMNZFqOZFY2HnTzclp94H/kzM7/NZ9luN/qQCskN6ZgRjCoWmWnoPzkvGnmYujuqZEYwojWVqj1IX1uu+jeAFr63L8JXVXPKdSQxFCfAqj11tZnf0AzCDbNr+0MID2KvAkI1Avw9G3GGLHCXwxDmTJNtqAliYo85ZHG3ZxoYoxbbhrLAzDzlnATQLVGWXaNG74ZoYg3t2EIxd8H1DFNEpDJ61eZ7LLPojYC4l3ESjsA3Y5sNPtjRBYhlMORoDMLkHP7jwYi6iqbTP1ECqXUcfeZpjmQdnG6XmHm6DHi9MVbdz6cgowOHoTMz3ACZyDwiHEnu3Ox/erN1GiWgcAnMJHsCHUqXJOhYvgvsQrDLrlEGOBwFrPkeSCLZJZc9P5vdVmN3dh9MsQpzHwFxy3pbG94UqtuWepSRqH9k9e7TdIsT5QXg2g4imPJMUTWSm0B4da5ooP+w7LponugJvSu0lpQkfxKeMTwWKwI6DgfCxwYT0spSLWgy11QTGUKB9EIy4FoVK6XV9M8hgBJNPwQxCCgwB4cII131JGF0PuQDKKQAoASxdGPv+pqNl9nHgfKA7hJuNUnlt7xTAtW8fgrnUL+hkf1Ve27kZCTmHjjTGFWXqyZnD8EiDaStFcZFQsvjhMKXZZTyfmd5UwExfiNdgxmeLkzOXzoMwxegru/UghFYXe/5Kw/sGGH+gQR4qD4OG4vGpr5Yqx4/Gp7xtLvYpNaJhEubNw/OLCpjpT9kSzPSMvpTZ2Dfqz4MonnrgdlgOMsiy7jr5M/OLX4Gx6tCdaOGuwEN30Sw6z5wuIYx5zE+i9jp+s3nn70nzp+B/+pQj2yX/vkXlc+7CIKqWjO9tl/gwyFTWaouv/Ksn72Z5zcKBsuIf7FVi5cV9HiTXr7fLL/3SL/3SL/0f0X8Adqv8/6MRb8cAAAAASUVORK5CYII=;" vertex="1" parent="1">
          <mxGeometry x="1510.9699999999998" y="581" width="79.69" height="75" as="geometry" />
        </mxCell>
        <mxCell id="PL4-hdovq-cvh_rnjsfR-35" value="logs.order-events" style="text;html=1;align=center;verticalAlign=middle;whiteSpace=wrap;rounded=0;" vertex="1" parent="1">
          <mxGeometry x="1512.4099999999999" y="660" width="110" height="30" as="geometry" />
        </mxCell>
        <mxCell id="PL4-hdovq-cvh_rnjsfR-36" style="edgeStyle=orthogonalEdgeStyle;rounded=0;orthogonalLoop=1;jettySize=auto;html=1;dashed=1;" edge="1" parent="1" source="PL4-hdovq-cvh_rnjsfR-37" target="PL4-hdovq-cvh_rnjsfR-32">
          <mxGeometry relative="1" as="geometry" />
        </mxCell>
        <mxCell id="PL4-hdovq-cvh_rnjsfR-105" style="edgeStyle=orthogonalEdgeStyle;rounded=0;orthogonalLoop=1;jettySize=auto;html=1;dashed=1;" edge="1" parent="1" source="PL4-hdovq-cvh_rnjsfR-37">
          <mxGeometry relative="1" as="geometry">
            <mxPoint x="1510" y="800" as="targetPoint" />
            <Array as="points">
              <mxPoint x="1310" y="1520" />
              <mxPoint x="1310" y="800" />
            </Array>
          </mxGeometry>
        </mxCell>
        <mxCell id="PL4-hdovq-cvh_rnjsfR-37" value="" style="sketch=0;outlineConnect=0;fontColor=#232F3E;gradientColor=none;fillColor=#ED7100;strokeColor=none;dashed=0;verticalLabelPosition=bottom;verticalAlign=top;align=center;html=1;fontSize=12;fontStyle=0;aspect=fixed;pointerEvents=1;shape=mxgraph.aws4.ecs_service;" vertex="1" parent="1">
          <mxGeometry x="844.46" y="1455" width="62.15" height="76.5" as="geometry" />
        </mxCell>
        <mxCell id="PL4-hdovq-cvh_rnjsfR-38" style="edgeStyle=orthogonalEdgeStyle;rounded=0;orthogonalLoop=1;jettySize=auto;html=1;dashed=1;" edge="1" parent="1" source="PL4-hdovq-cvh_rnjsfR-39" target="PL4-hdovq-cvh_rnjsfR-34">
          <mxGeometry relative="1" as="geometry" />
        </mxCell>
        <mxCell id="PL4-hdovq-cvh_rnjsfR-96" style="edgeStyle=orthogonalEdgeStyle;rounded=0;orthogonalLoop=1;jettySize=auto;html=1;entryX=0.5;entryY=0;entryDx=0;entryDy=0;entryPerimeter=0;" edge="1" parent="1" source="PL4-hdovq-cvh_rnjsfR-39" target="PL4-hdovq-cvh_rnjsfR-47">
          <mxGeometry relative="1" as="geometry">
            <Array as="points">
              <mxPoint x="835" y="440" />
              <mxPoint x="2316" y="440" />
            </Array>
          </mxGeometry>
        </mxCell>
        <mxCell id="PL4-hdovq-cvh_rnjsfR-99" style="edgeStyle=orthogonalEdgeStyle;rounded=0;orthogonalLoop=1;jettySize=auto;html=1;dashed=1;" edge="1" parent="1" source="PL4-hdovq-cvh_rnjsfR-39" target="PL4-hdovq-cvh_rnjsfR-15">
          <mxGeometry relative="1" as="geometry">
            <Array as="points">
              <mxPoint x="850" y="945" />
            </Array>
          </mxGeometry>
        </mxCell>
        <mxCell id="PL4-hdovq-cvh_rnjsfR-101" style="edgeStyle=orthogonalEdgeStyle;rounded=0;orthogonalLoop=1;jettySize=auto;html=1;dashed=1;" edge="1" parent="1" source="PL4-hdovq-cvh_rnjsfR-39" target="PL4-hdovq-cvh_rnjsfR-27">
          <mxGeometry relative="1" as="geometry">
            <Array as="points">
              <mxPoint x="810" y="1288" />
            </Array>
          </mxGeometry>
        </mxCell>
        <mxCell id="PL4-hdovq-cvh_rnjsfR-39" value="" style="sketch=0;outlineConnect=0;fontColor=#232F3E;gradientColor=none;fillColor=#ED7100;strokeColor=none;dashed=0;verticalLabelPosition=bottom;verticalAlign=top;align=center;html=1;fontSize=12;fontStyle=0;aspect=fixed;pointerEvents=1;shape=mxgraph.aws4.ecs_service;" vertex="1" parent="1">
          <mxGeometry x="806.78" y="579.5" width="63.38" height="78" as="geometry" />
        </mxCell>
        <mxCell id="PL4-hdovq-cvh_rnjsfR-95" style="edgeStyle=orthogonalEdgeStyle;rounded=0;orthogonalLoop=1;jettySize=auto;html=1;" edge="1" parent="1" source="PL4-hdovq-cvh_rnjsfR-40" target="PL4-hdovq-cvh_rnjsfR-52">
          <mxGeometry relative="1" as="geometry">
            <Array as="points">
              <mxPoint x="841" y="60" />
              <mxPoint x="2330" y="60" />
            </Array>
          </mxGeometry>
        </mxCell>
        <mxCell id="PL4-hdovq-cvh_rnjsfR-40" value="" style="sketch=0;outlineConnect=0;fontColor=#232F3E;gradientColor=none;fillColor=#ED7100;strokeColor=none;dashed=0;verticalLabelPosition=bottom;verticalAlign=top;align=center;html=1;fontSize=12;fontStyle=0;aspect=fixed;pointerEvents=1;shape=mxgraph.aws4.ecs_service;" vertex="1" parent="1">
          <mxGeometry x="806.78" y="220" width="69.06" height="85" as="geometry" />
        </mxCell>
        <mxCell id="PL4-hdovq-cvh_rnjsfR-41" style="edgeStyle=orthogonalEdgeStyle;rounded=0;orthogonalLoop=1;jettySize=auto;html=1;entryX=0;entryY=0.75;entryDx=0;entryDy=0;dashed=1;" edge="1" parent="1" source="PL4-hdovq-cvh_rnjsfR-42" target="PL4-hdovq-cvh_rnjsfR-30">
          <mxGeometry relative="1" as="geometry">
            <Array as="points">
              <mxPoint x="1338" y="1120" />
            </Array>
          </mxGeometry>
        </mxCell>
        <mxCell id="PL4-hdovq-cvh_rnjsfR-98" style="edgeStyle=orthogonalEdgeStyle;rounded=0;orthogonalLoop=1;jettySize=auto;html=1;entryX=0.5;entryY=0;entryDx=0;entryDy=0;" edge="1" parent="1" source="PL4-hdovq-cvh_rnjsfR-42" target="PL4-hdovq-cvh_rnjsfR-64">
          <mxGeometry relative="1" as="geometry">
            <Array as="points">
              <mxPoint x="853" y="1400" />
              <mxPoint x="2316" y="1400" />
            </Array>
          </mxGeometry>
        </mxCell>
        <mxCell id="PL4-hdovq-cvh_rnjsfR-42" value="" style="sketch=0;outlineConnect=0;fontColor=#232F3E;gradientColor=none;fillColor=#ED7100;strokeColor=none;dashed=0;verticalLabelPosition=bottom;verticalAlign=top;align=center;html=1;fontSize=12;fontStyle=0;aspect=fixed;pointerEvents=1;shape=mxgraph.aws4.ecs_service;" vertex="1" parent="1">
          <mxGeometry x="820.53" y="1060.06" width="64.91" height="79.89" as="geometry" />
        </mxCell>
        <mxCell id="PL4-hdovq-cvh_rnjsfR-43" style="edgeStyle=orthogonalEdgeStyle;rounded=0;orthogonalLoop=1;jettySize=auto;html=1;" edge="1" parent="1" source="PL4-hdovq-cvh_rnjsfR-45" target="PL4-hdovq-cvh_rnjsfR-39">
          <mxGeometry relative="1" as="geometry">
            <mxPoint x="350.14" y="890" as="sourcePoint" />
            <mxPoint x="900.14" y="560" as="targetPoint" />
            <Array as="points">
              <mxPoint x="120" y="619" />
              <mxPoint x="120" y="619" />
            </Array>
          </mxGeometry>
        </mxCell>
        <mxCell id="PL4-hdovq-cvh_rnjsfR-44" style="edgeStyle=orthogonalEdgeStyle;rounded=0;orthogonalLoop=1;jettySize=auto;html=1;startArrow=classic;startFill=1;" edge="1" parent="1" source="PL4-hdovq-cvh_rnjsfR-45" target="PL4-hdovq-cvh_rnjsfR-40">
          <mxGeometry relative="1" as="geometry">
            <mxPoint x="915" y="279.9999999999998" as="targetPoint" />
            <Array as="points">
              <mxPoint x="-125" y="460" />
              <mxPoint x="320" y="460" />
              <mxPoint x="320" y="263" />
            </Array>
          </mxGeometry>
        </mxCell>
        <mxCell id="PL4-hdovq-cvh_rnjsfR-45" value="" style="sketch=0;outlineConnect=0;fontColor=#232F3E;gradientColor=none;fillColor=#232F3D;strokeColor=none;dashed=0;verticalLabelPosition=bottom;verticalAlign=top;align=center;html=1;fontSize=12;fontStyle=0;aspect=fixed;pointerEvents=1;shape=mxgraph.aws4.client;" vertex="1" parent="1">
          <mxGeometry x="-180" y="590" width="90" height="87.69" as="geometry" />
        </mxCell>
        <mxCell id="PL4-hdovq-cvh_rnjsfR-90" style="edgeStyle=orthogonalEdgeStyle;rounded=0;orthogonalLoop=1;jettySize=auto;html=1;dashed=1;" edge="1" parent="1" source="PL4-hdovq-cvh_rnjsfR-47" target="PL4-hdovq-cvh_rnjsfR-57">
          <mxGeometry relative="1" as="geometry" />
        </mxCell>
        <mxCell id="PL4-hdovq-cvh_rnjsfR-47" value="" style="outlineConnect=0;dashed=0;verticalLabelPosition=bottom;verticalAlign=top;align=center;html=1;shape=mxgraph.aws3.rds;fillColor=#2E73B8;gradientColor=none;" vertex="1" parent="1">
          <mxGeometry x="2280" y="552.49" width="72" height="81" as="geometry" />
        </mxCell>
        <mxCell id="PL4-hdovq-cvh_rnjsfR-91" style="edgeStyle=orthogonalEdgeStyle;rounded=0;orthogonalLoop=1;jettySize=auto;html=1;dashed=1;" edge="1" parent="1" source="PL4-hdovq-cvh_rnjsfR-49" target="PL4-hdovq-cvh_rnjsfR-59">
          <mxGeometry relative="1" as="geometry" />
        </mxCell>
        <mxCell id="PL4-hdovq-cvh_rnjsfR-49" value="" style="outlineConnect=0;dashed=0;verticalLabelPosition=bottom;verticalAlign=top;align=center;html=1;shape=mxgraph.aws3.rds;fillColor=#2E73B8;gradientColor=none;" vertex="1" parent="1">
          <mxGeometry x="2280" y="1052.37" width="72" height="81" as="geometry" />
        </mxCell>
        <mxCell id="PL4-hdovq-cvh_rnjsfR-94" style="edgeStyle=orthogonalEdgeStyle;rounded=0;orthogonalLoop=1;jettySize=auto;html=1;entryX=1;entryY=0.5;entryDx=0;entryDy=0;dashed=1;" edge="1" parent="1" source="PL4-hdovq-cvh_rnjsfR-51" target="PL4-hdovq-cvh_rnjsfR-61">
          <mxGeometry relative="1" as="geometry" />
        </mxCell>
        <mxCell id="PL4-hdovq-cvh_rnjsfR-51" value="" style="outlineConnect=0;dashed=0;verticalLabelPosition=bottom;verticalAlign=top;align=center;html=1;shape=mxgraph.aws3.rds;fillColor=#2E73B8;gradientColor=none;" vertex="1" parent="1">
          <mxGeometry x="2280" y="1453.5000000000002" width="72" height="81" as="geometry" />
        </mxCell>
        <mxCell id="PL4-hdovq-cvh_rnjsfR-52" value="" style="outlineConnect=0;dashed=0;verticalLabelPosition=bottom;verticalAlign=top;align=center;html=1;shape=mxgraph.aws3.rds;fillColor=#2E73B8;gradientColor=none;" vertex="1" parent="1">
          <mxGeometry x="2290" y="190" width="72" height="77.5" as="geometry" />
        </mxCell>
        <mxCell id="PL4-hdovq-cvh_rnjsfR-53" style="edgeStyle=orthogonalEdgeStyle;rounded=0;orthogonalLoop=1;jettySize=auto;html=1;dashed=1;" edge="1" parent="1" source="PL4-hdovq-cvh_rnjsfR-42">
          <mxGeometry relative="1" as="geometry">
            <mxPoint x="1520" y="780" as="targetPoint" />
            <Array as="points">
              <mxPoint x="1180" y="1100" />
              <mxPoint x="1180" y="780" />
              <mxPoint x="1520" y="780" />
            </Array>
          </mxGeometry>
        </mxCell>
        <mxCell id="PL4-hdovq-cvh_rnjsfR-54" value="" style="shape=image;verticalLabelPosition=bottom;labelBackgroundColor=default;verticalAlign=top;aspect=fixed;imageAspect=0;image=data:image/png,iVBORw0KGgoAAAANSUhEUgAAAMwAAADACAMAAAB/Pny7AAAAbFBMVEX///8jHyAAAADz8/P4+Pj7+/sgHB0bFhdgX1+qqaqJiIkIAAAfGhvr6+sVEBGAf39NSkrf3t4tKytZWVkPBwmamprl5eWTkpLR0NCxsLB6eXmjoqIqJifIx8dzcnK8u7s6NzhoZ2dCP0BTUVIOhml2AAAPmElEQVR4nO1dB5PrKBK2kASyAgrGCraV//9/PAUaUPCbke/tDdqb3qqterLG8Bk60t1cLr+0R7YZX8Nb1Ff3PLB/ejL/HdnBtUMIMcqG//tZbP30hP4LMosGUQOIIHZPf3pKH1MaUgllJB/d4p+e1IcUV8g3VoS68qen9RGllbfBYhisy396Yh+Qme1hGdDcTsg3pUHE/EeBhvk/MHF/emqHKbh5fPYU3dx71lIE/z4f25Qwd9TkpmmZZtyieXEwc0+mPc2WLwxyhKJ0qc+55mQywOTLwDpF6Vez1vFf9c9N7BOq+S5D6iKkzbw0KDvXPrvOYDzHVJ+289Kg0Hz3d1qSO4NB94Vp+ZzBeO25VE3FwdSLDVXOYJhzLgvtwcEUCzA1B9OeC0zGwbiLbZbxbVYFPzWvj6hAXNur07ZvdA+i9pSDaC6Uh/VrEs2YPn9sXh+RmcxmJkmkoolv/FlzMqVpcaYxWANmZe4QbhXsSWY7iONU15BHzO0Zg74euXkxc7fhWHxy37xdhn3XNE3Xh1pa1KYLZrNP8St5YQruDXPWC1N0hJKJKNVzD8YNA+cM+8N/8A/yKlYv3hARnw6+G4o0FNy1L1xNhTALV68laPUKQ/rtNetJtmgwq5ZMXlO2eclH+m016/mieDlNSqulviwx3WAZ0WjovtU9VeFQr8mWL8SRJxH4MppDGw3t6jiLKI8EYsa6x2r72ELkGcxLmheDGA4m4f4X/ijZ+f0x+Zc4abNy7ZPFPCpgEOTci7rIHGAz0mi40QYKwvHnZ+3O7GBhqH+fnAI7vjeUL42m0bX7OGUUbrWHzRfGp8Ltsa7cqKOahtgnMw09tmCEaX2X4tpyZ/2qpyXwBzB3cHrURYijaWkw3VpwOtBbMM6sL1G2G8LRk2negnnN7LHS95kx7TPvoaU7+hYMl8MrU+z64mC0DK7dP1uZULuVsc20nFiD3urUXDmS5+IZKy1aiuYpU0RvxfLsnLvWNFINsVRTaZZeO6ScBfoM+U9VCgs9c5VLZuupZ6zaQWv7fnAjC7GnAh5cM4ghJm4VzcxIeh19ms/GM7bEiDvP0iofEPMwWHOdH6ZPsM18nVjGcnfdrmEZ6GPcannWIOnqUNo+B6v53r74H2llNdsu24sATKxDqtR89svPMaNJk1DGOQxTnRbmTRLAjAY77Uu4YQKOT2QIh+oUoSkXiSbEQ566DpiAU8aQsbeAesUAEoVfEHq1j7ZB20QajPq89ras5WsVa8pkKIwhLr2CO0XLWA2a7Jgar+NmSKt1seT0UC91vhUyNVSDqvlxPKgjuWiYoptWRlkGCgZ7S6H0lIEnomQ21D0mPNZMcKSV5h84BpgauSszXuw/Hy/EVZk5Udd1UZvptMNGykHesn5jkkQQjN1EYK00TrXaXzPdCWT8FJvPxLEN0s9d2SXukOxHi3q+NLTX0pHcUM/BoGznx7+CpfzSSMe/JzPi/I+uO5+CD4ORTib+Wwo6wjXGlmUGI18wjZ4RyxWlAAbvaYyTgQn4NsPe3srEYpudAozVA8/sJWJA7qZPTyEALg6A2QmVyVOM7hyiOeRgfH9ryVuCZapzKM0Sw4TXpplinKnhpYmsgTTMNjETbtH7bC3PUsCCmWpR2kFcZ4+qyupYu/SZCqxJtkouDxpwK32jEAxlp8WNopmYU2gm5WLhnHldrThneSQTGHzUlvNHQRHJSgHfQ32hl2ho5Yk4y/J5bmb+bBbJGAhNzkv8WOVoMBRqtTipDF74qHOfdV0/3WgdSfNR9IxzZxUZGPWpXtm1TyVIQREb43tq3BlyMShxnL0YLtpkcf0kma0aclnE90YML8whYLofw2UPnYRafFsHkJSZdnXebg4IqIeQ2Ie+sec+/BjF/Ts0bDx5GYseFw9RV7lVg0AW0G344CdpWJs1Z0+Ekln3BC6SUgx15aD/LbOOwKg29EoXNsPNVholmPzJ0wg+l4ZaAEVErNVL21zKiFGF8zEmjKq8EMAxYCs1q9nyI1DtKtPsok8wj2JiQl7dMneOC3CfqWqlniuGsK/XPpsoz6ppdn7Tuuvfmm+pZcKT7Wh6dD5TOCc1bHmAH3ys6lK4O+TpmAvIncu9fDN+6Lc6jXkaOqebvAVDd8HctU4Eegum291mD6155i0YXsvltepHJo/usmzzvg70FgzP0PCpus+K2en2E62sM0FvwYDSZMpBec4Xhka6HTvNNCfPbSM18nzDEzZOzsvSjHXNgB4U3yc+J427/amhaNigRjYuTpzBmbu/LkzRgcobeCm+h7r1BE0R4fARarqXzBWgjnYLE1RIDVZQ1KwYJ1cyHQiVMQKS6GZmDlbzts5nGRa07t6e0+MzzdIAByzdNljho+VWM0O6TZ7x2eOHpvyW8n4v8KJk/U0UuK9NNIBqZ2MGldxjGCt5ct0yKGY+u0XKE0GRdnvMvooQAEWMMBmBpStz2C7DZHhjwDu6oqjZuD0/T6mIkaMoGzMWHSrqfNZnA2Z5bxvqIW/w4O6lfsayfRUHMVk8roQVP0Ehsm3XCSvO6+Ja1HmsnXq5jOoQMhueMHOrgDqfN2aXjjgmghyZRe8Pd06q0dJU+RNxq8v31MAkpDucrVULtJ2oFuxRQauWcxybA0F3k+dCNl1P2arFhpBYsduq5WTdTaBVy/KAvGBnXBnBM0tt756TZ7g0I4m6BpCJdjZpBqfnSA0YXefwnmbHYl8TWAC+kqdVdn+2ALQlYZtR/zkziFlAuuOObaY5xZCpTWh7r8v6WSWizkeznPKvyRKpAJgZTde8ZKuW6mwLMzg0MhVgzPSXdT6nbHFaNtu+JWOR1slEGafa2KLBSM/g/tc0rM0qKkZ2E7fPQbFDlDofn1DjjPwiqOgTSunUUoquT85PSPXD6cc6H+ehWYbfZ2SmeZnH/wYkv/RLv/RLv/RLv/RL/36y/8cVTbbF6S9/bxDndV088xnNPzTIiqz6PtPf9RPzIoxeYz3T3KM+z/go/+xCmSGvomr+4pdaRe+hKYl7BmM/oVTrn10a6FdMo7/4nRmFCAEHc4Vg+/nAZExEB04PpmxkjsnpwTwgpkZAAJwXTArtHFjyjM1p9ucFw2sxDNqLSNp5wWRzJF0tYDovGNfjXyhDnOcFE3IwSp2crmCCNB4o/UPcD8Dc5DtHwZjBNMjhMvV9MLEgdXQ7HUyuNmqaqHWLPJgf8femf1njFHhh+sD/4vk+mFQMsvhpgrx226hrOie8lvOhacDf+yphYhdM6XC6uUqOQnytBtvRo4SMd2g24Xg1kBne5hen5Mu0dZyWCzOcjJ/0U1LKLpi8hUHU6u20eDRykORRD0DtjA+yl6f/FZi8Q2wi1Jdipc3CoWr6KEVJFlzMfn4VTVmxsTH8C0wZTMfnb5VmfPP4IEotvlVXGCmDEPRy44td8UFux8HEogKhlwmiaZisj5coqgLzxpvMzmCSdT+9t2DSipcS0k5e/mRmzbp7Ihnv6QznP2fOYTBxC/evdPIgPHZ2Mq4xagNnCWb90jswQchTiEkis6OCiuwUd6MocD8FEzw4FtrInyyN1ssyo6EhVCseWxkz46X2BD/FIJaz39QSVQ/vMzCDL8J/spf0Pe3dDPMRjZFAwuYEBiNP8NXIM3QfjH0lXEpQJXGo3a+YHmUJ/gzMk5cjLPoQy9sXhq3FabkhZjBpe5PS7BX1fd9d98DUVDTjkYOoXRMYeKbwm30EpoAbJdSKvVIOg1A7yf742S3gIJnjD+aM81Zp5tClAjnKROS6DGKrHgdJi35R13IQTC2GUQsQRB9QonbIK1U+Ut4XFoBUUUswOfThRTdlEJH14avZhIPgkXx0DEzOp42hEeY8a1FxtcxativJSQfAxB0krPXKl4keMAQvix8y2dPyEBg5TKu+wlXJIBLWOUuyWuP7YIJeYFGnFvJBfP+5sshkT9UjYEQ7CbToPgBVipg+12ai3Yl2k98EY4t+It6i/bkNGsrbmixiA34fTG86gMVZJI1e+WbaS4zNZbvJb4FpzFBgWeQMly9wT7epxIFoNPz9lYFh1vd881zy/T6A4j7ab4HxG1dgWWanZLztA9qLecIffRsMfgkRs0qCgfTLnd9MucP1W2AMuOmJdeVy0rxBJ2n2yoXio2BAMdE1Fgtul921v1Oolf8eGE4kqlcLcIOE9T2XxWrg5tHvguG0+bqU21u7bQAvZqfaZt8Fs0myFWnRu/c+Q8b+98GAtURWMguMx/10MuhY8k0wGPpwusvEdGgD6e0mR9lHrWYSwc2Sq8SxfL6ZxPD2wVTeATC44ZFb5fajidK/C4bdoNsqW1xh+tXK9Ee2GWmgLIq+FuIkENn3u2Cq4/4MbLhlt8UAwOyWWAaHBABJRLdd1Ks/GTTo3L/22YoOCoDRnAF9vqzrBWm2e1VujvAhMNZFqOZFY2HnTzclp94H/kzM7/NZ9luN/qQCskN6ZgRjCoWmWnoPzkvGnmYujuqZEYwojWVqj1IX1uu+jeAFr63L8JXVXPKdSQxFCfAqj11tZnf0AzCDbNr+0MID2KvAkI1Avw9G3GGLHCXwxDmTJNtqAliYo85ZHG3ZxoYoxbbhrLAzDzlnATQLVGWXaNG74ZoYg3t2EIxd8H1DFNEpDJ61eZ7LLPojYC4l3ESjsA3Y5sNPtjRBYhlMORoDMLkHP7jwYi6iqbTP1ECqXUcfeZpjmQdnG6XmHm6DHi9MVbdz6cgowOHoTMz3ACZyDwiHEnu3Ox/erN1GiWgcAnMJHsCHUqXJOhYvgvsQrDLrlEGOBwFrPkeSCLZJZc9P5vdVmN3dh9MsQpzHwFxy3pbG94UqtuWepSRqH9k9e7TdIsT5QXg2g4imPJMUTWSm0B4da5ooP+w7LponugJvSu0lpQkfxKeMTwWKwI6DgfCxwYT0spSLWgy11QTGUKB9EIy4FoVK6XV9M8hgBJNPwQxCCgwB4cII131JGF0PuQDKKQAoASxdGPv+pqNl9nHgfKA7hJuNUnlt7xTAtW8fgrnUL+hkf1Ve27kZCTmHjjTGFWXqyZnD8EiDaStFcZFQsvjhMKXZZTyfmd5UwExfiNdgxmeLkzOXzoMwxegru/UghFYXe/5Kw/sGGH+gQR4qD4OG4vGpr5Yqx4/Gp7xtLvYpNaJhEubNw/OLCpjpT9kSzPSMvpTZ2Dfqz4MonnrgdlgOMsiy7jr5M/OLX4Gx6tCdaOGuwEN30Sw6z5wuIYx5zE+i9jp+s3nn70nzp+B/+pQj2yX/vkXlc+7CIKqWjO9tl/gwyFTWaouv/Ksn72Z5zcKBsuIf7FVi5cV9HiTXr7fLL/3SL/3SL/0f0X8Adqv8/6MRb8cAAAAASUVORK5CYII=;" vertex="1" parent="1">
          <mxGeometry x="1517.4099999999999" y="220" width="79.69" height="75" as="geometry" />
        </mxCell>
        <mxCell id="PL4-hdovq-cvh_rnjsfR-55" value="logs.user-events" style="text;html=1;align=center;verticalAlign=middle;whiteSpace=wrap;rounded=0;" vertex="1" parent="1">
          <mxGeometry x="1500" y="305" width="110" height="30" as="geometry" />
        </mxCell>
        <mxCell id="PL4-hdovq-cvh_rnjsfR-56" style="edgeStyle=orthogonalEdgeStyle;rounded=0;orthogonalLoop=1;jettySize=auto;html=1;entryX=-0.03;entryY=0.571;entryDx=0;entryDy=0;entryPerimeter=0;dashed=1;" edge="1" parent="1" source="PL4-hdovq-cvh_rnjsfR-40" target="PL4-hdovq-cvh_rnjsfR-54">
          <mxGeometry relative="1" as="geometry" />
        </mxCell>
        <mxCell id="PL4-hdovq-cvh_rnjsfR-57" value="" style="shape=image;verticalLabelPosition=bottom;labelBackgroundColor=default;verticalAlign=top;aspect=fixed;imageAspect=0;image=data:image/png,iVBORw0KGgoAAAANSUhEUgAAAMwAAADACAMAAAB/Pny7AAAAbFBMVEX///8jHyAAAADz8/P4+Pj7+/sgHB0bFhdgX1+qqaqJiIkIAAAfGhvr6+sVEBGAf39NSkrf3t4tKytZWVkPBwmamprl5eWTkpLR0NCxsLB6eXmjoqIqJifIx8dzcnK8u7s6NzhoZ2dCP0BTUVIOhml2AAAPmElEQVR4nO1dB5PrKBK2kASyAgrGCraV//9/PAUaUPCbke/tDdqb3qqterLG8Bk60t1cLr+0R7YZX8Nb1Ff3PLB/ejL/HdnBtUMIMcqG//tZbP30hP4LMosGUQOIIHZPf3pKH1MaUgllJB/d4p+e1IcUV8g3VoS68qen9RGllbfBYhisy396Yh+Qme1hGdDcTsg3pUHE/EeBhvk/MHF/emqHKbh5fPYU3dx71lIE/z4f25Qwd9TkpmmZZtyieXEwc0+mPc2WLwxyhKJ0qc+55mQywOTLwDpF6Vez1vFf9c9N7BOq+S5D6iKkzbw0KDvXPrvOYDzHVJ+289Kg0Hz3d1qSO4NB94Vp+ZzBeO25VE3FwdSLDVXOYJhzLgvtwcEUCzA1B9OeC0zGwbiLbZbxbVYFPzWvj6hAXNur07ZvdA+i9pSDaC6Uh/VrEs2YPn9sXh+RmcxmJkmkoolv/FlzMqVpcaYxWANmZe4QbhXsSWY7iONU15BHzO0Zg74euXkxc7fhWHxy37xdhn3XNE3Xh1pa1KYLZrNP8St5YQruDXPWC1N0hJKJKNVzD8YNA+cM+8N/8A/yKlYv3hARnw6+G4o0FNy1L1xNhTALV68laPUKQ/rtNetJtmgwq5ZMXlO2eclH+m016/mieDlNSqulviwx3WAZ0WjovtU9VeFQr8mWL8SRJxH4MppDGw3t6jiLKI8EYsa6x2r72ELkGcxLmheDGA4m4f4X/ijZ+f0x+Zc4abNy7ZPFPCpgEOTci7rIHGAz0mi40QYKwvHnZ+3O7GBhqH+fnAI7vjeUL42m0bX7OGUUbrWHzRfGp8Ltsa7cqKOahtgnMw09tmCEaX2X4tpyZ/2qpyXwBzB3cHrURYijaWkw3VpwOtBbMM6sL1G2G8LRk2negnnN7LHS95kx7TPvoaU7+hYMl8MrU+z64mC0DK7dP1uZULuVsc20nFiD3urUXDmS5+IZKy1aiuYpU0RvxfLsnLvWNFINsVRTaZZeO6ScBfoM+U9VCgs9c5VLZuupZ6zaQWv7fnAjC7GnAh5cM4ghJm4VzcxIeh19ms/GM7bEiDvP0iofEPMwWHOdH6ZPsM18nVjGcnfdrmEZ6GPcannWIOnqUNo+B6v53r74H2llNdsu24sATKxDqtR89svPMaNJk1DGOQxTnRbmTRLAjAY77Uu4YQKOT2QIh+oUoSkXiSbEQ566DpiAU8aQsbeAesUAEoVfEHq1j7ZB20QajPq89ras5WsVa8pkKIwhLr2CO0XLWA2a7Jgar+NmSKt1seT0UC91vhUyNVSDqvlxPKgjuWiYoptWRlkGCgZ7S6H0lIEnomQ21D0mPNZMcKSV5h84BpgauSszXuw/Hy/EVZk5Udd1UZvptMNGykHesn5jkkQQjN1EYK00TrXaXzPdCWT8FJvPxLEN0s9d2SXukOxHi3q+NLTX0pHcUM/BoGznx7+CpfzSSMe/JzPi/I+uO5+CD4ORTib+Wwo6wjXGlmUGI18wjZ4RyxWlAAbvaYyTgQn4NsPe3srEYpudAozVA8/sJWJA7qZPTyEALg6A2QmVyVOM7hyiOeRgfH9ryVuCZapzKM0Sw4TXpplinKnhpYmsgTTMNjETbtH7bC3PUsCCmWpR2kFcZ4+qyupYu/SZCqxJtkouDxpwK32jEAxlp8WNopmYU2gm5WLhnHldrThneSQTGHzUlvNHQRHJSgHfQ32hl2ho5Yk4y/J5bmb+bBbJGAhNzkv8WOVoMBRqtTipDF74qHOfdV0/3WgdSfNR9IxzZxUZGPWpXtm1TyVIQREb43tq3BlyMShxnL0YLtpkcf0kma0aclnE90YML8whYLofw2UPnYRafFsHkJSZdnXebg4IqIeQ2Ie+sec+/BjF/Ts0bDx5GYseFw9RV7lVg0AW0G344CdpWJs1Z0+Ekln3BC6SUgx15aD/LbOOwKg29EoXNsPNVholmPzJ0wg+l4ZaAEVErNVL21zKiFGF8zEmjKq8EMAxYCs1q9nyI1DtKtPsok8wj2JiQl7dMneOC3CfqWqlniuGsK/XPpsoz6ppdn7Tuuvfmm+pZcKT7Wh6dD5TOCc1bHmAH3ys6lK4O+TpmAvIncu9fDN+6Lc6jXkaOqebvAVDd8HctU4Eegum291mD6155i0YXsvltepHJo/usmzzvg70FgzP0PCpus+K2en2E62sM0FvwYDSZMpBec4Xhka6HTvNNCfPbSM18nzDEzZOzsvSjHXNgB4U3yc+J427/amhaNigRjYuTpzBmbu/LkzRgcobeCm+h7r1BE0R4fARarqXzBWgjnYLE1RIDVZQ1KwYJ1cyHQiVMQKS6GZmDlbzts5nGRa07t6e0+MzzdIAByzdNljho+VWM0O6TZ7x2eOHpvyW8n4v8KJk/U0UuK9NNIBqZ2MGldxjGCt5ct0yKGY+u0XKE0GRdnvMvooQAEWMMBmBpStz2C7DZHhjwDu6oqjZuD0/T6mIkaMoGzMWHSrqfNZnA2Z5bxvqIW/w4O6lfsayfRUHMVk8roQVP0Ehsm3XCSvO6+Ja1HmsnXq5jOoQMhueMHOrgDqfN2aXjjgmghyZRe8Pd06q0dJU+RNxq8v31MAkpDucrVULtJ2oFuxRQauWcxybA0F3k+dCNl1P2arFhpBYsduq5WTdTaBVy/KAvGBnXBnBM0tt756TZ7g0I4m6BpCJdjZpBqfnSA0YXefwnmbHYl8TWAC+kqdVdn+2ALQlYZtR/zkziFlAuuOObaY5xZCpTWh7r8v6WSWizkeznPKvyRKpAJgZTde8ZKuW6mwLMzg0MhVgzPSXdT6nbHFaNtu+JWOR1slEGafa2KLBSM/g/tc0rM0qKkZ2E7fPQbFDlDofn1DjjPwiqOgTSunUUoquT85PSPXD6cc6H+ehWYbfZ2SmeZnH/wYkv/RLv/RLv/RLv/RL/36y/8cVTbbF6S9/bxDndV088xnNPzTIiqz6PtPf9RPzIoxeYz3T3KM+z/go/+xCmSGvomr+4pdaRe+hKYl7BmM/oVTrn10a6FdMo7/4nRmFCAEHc4Vg+/nAZExEB04PpmxkjsnpwTwgpkZAAJwXTArtHFjyjM1p9ucFw2sxDNqLSNp5wWRzJF0tYDovGNfjXyhDnOcFE3IwSp2crmCCNB4o/UPcD8Dc5DtHwZjBNMjhMvV9MLEgdXQ7HUyuNmqaqHWLPJgf8femf1njFHhh+sD/4vk+mFQMsvhpgrx226hrOie8lvOhacDf+yphYhdM6XC6uUqOQnytBtvRo4SMd2g24Xg1kBne5hen5Mu0dZyWCzOcjJ/0U1LKLpi8hUHU6u20eDRykORRD0DtjA+yl6f/FZi8Q2wi1Jdipc3CoWr6KEVJFlzMfn4VTVmxsTH8C0wZTMfnb5VmfPP4IEotvlVXGCmDEPRy44td8UFux8HEogKhlwmiaZisj5coqgLzxpvMzmCSdT+9t2DSipcS0k5e/mRmzbp7Ihnv6QznP2fOYTBxC/evdPIgPHZ2Mq4xagNnCWb90jswQchTiEkis6OCiuwUd6MocD8FEzw4FtrInyyN1ssyo6EhVCseWxkz46X2BD/FIJaz39QSVQ/vMzCDL8J/spf0Pe3dDPMRjZFAwuYEBiNP8NXIM3QfjH0lXEpQJXGo3a+YHmUJ/gzMk5cjLPoQy9sXhq3FabkhZjBpe5PS7BX1fd9d98DUVDTjkYOoXRMYeKbwm30EpoAbJdSKvVIOg1A7yf742S3gIJnjD+aM81Zp5tClAjnKROS6DGKrHgdJi35R13IQTC2GUQsQRB9QonbIK1U+Ut4XFoBUUUswOfThRTdlEJH14avZhIPgkXx0DEzOp42hEeY8a1FxtcxativJSQfAxB0krPXKl4keMAQvix8y2dPyEBg5TKu+wlXJIBLWOUuyWuP7YIJeYFGnFvJBfP+5sshkT9UjYEQ7CbToPgBVipg+12ai3Yl2k98EY4t+It6i/bkNGsrbmixiA34fTG86gMVZJI1e+WbaS4zNZbvJb4FpzFBgWeQMly9wT7epxIFoNPz9lYFh1vd881zy/T6A4j7ab4HxG1dgWWanZLztA9qLecIffRsMfgkRs0qCgfTLnd9MucP1W2AMuOmJdeVy0rxBJ2n2yoXio2BAMdE1Fgtul921v1Oolf8eGE4kqlcLcIOE9T2XxWrg5tHvguG0+bqU21u7bQAvZqfaZt8Fs0myFWnRu/c+Q8b+98GAtURWMguMx/10MuhY8k0wGPpwusvEdGgD6e0mR9lHrWYSwc2Sq8SxfL6ZxPD2wVTeATC44ZFb5fajidK/C4bdoNsqW1xh+tXK9Ee2GWmgLIq+FuIkENn3u2Cq4/4MbLhlt8UAwOyWWAaHBABJRLdd1Ks/GTTo3L/22YoOCoDRnAF9vqzrBWm2e1VujvAhMNZFqOZFY2HnTzclp94H/kzM7/NZ9luN/qQCskN6ZgRjCoWmWnoPzkvGnmYujuqZEYwojWVqj1IX1uu+jeAFr63L8JXVXPKdSQxFCfAqj11tZnf0AzCDbNr+0MID2KvAkI1Avw9G3GGLHCXwxDmTJNtqAliYo85ZHG3ZxoYoxbbhrLAzDzlnATQLVGWXaNG74ZoYg3t2EIxd8H1DFNEpDJ61eZ7LLPojYC4l3ESjsA3Y5sNPtjRBYhlMORoDMLkHP7jwYi6iqbTP1ECqXUcfeZpjmQdnG6XmHm6DHi9MVbdz6cgowOHoTMz3ACZyDwiHEnu3Ox/erN1GiWgcAnMJHsCHUqXJOhYvgvsQrDLrlEGOBwFrPkeSCLZJZc9P5vdVmN3dh9MsQpzHwFxy3pbG94UqtuWepSRqH9k9e7TdIsT5QXg2g4imPJMUTWSm0B4da5ooP+w7LponugJvSu0lpQkfxKeMTwWKwI6DgfCxwYT0spSLWgy11QTGUKB9EIy4FoVK6XV9M8hgBJNPwQxCCgwB4cII131JGF0PuQDKKQAoASxdGPv+pqNl9nHgfKA7hJuNUnlt7xTAtW8fgrnUL+hkf1Ve27kZCTmHjjTGFWXqyZnD8EiDaStFcZFQsvjhMKXZZTyfmd5UwExfiNdgxmeLkzOXzoMwxegru/UghFYXe/5Kw/sGGH+gQR4qD4OG4vGpr5Yqx4/Gp7xtLvYpNaJhEubNw/OLCpjpT9kSzPSMvpTZ2Dfqz4MonnrgdlgOMsiy7jr5M/OLX4Gx6tCdaOGuwEN30Sw6z5wuIYx5zE+i9jp+s3nn70nzp+B/+pQj2yX/vkXlc+7CIKqWjO9tl/gwyFTWaouv/Ksn72Z5zcKBsuIf7FVi5cV9HiTXr7fLL/3SL/3SL/0f0X8Adqv8/6MRb8cAAAAASUVORK5CYII=;" vertex="1" parent="1">
          <mxGeometry x="1850.25" y="560.8199999999999" width="68.37" height="64.35" as="geometry" />
        </mxCell>
        <mxCell id="PL4-hdovq-cvh_rnjsfR-58" value="&lt;span data-teams=&quot;true&quot;&gt;order cdc topic&lt;/span&gt;" style="text;html=1;align=center;verticalAlign=middle;whiteSpace=wrap;rounded=0;" vertex="1" parent="1">
          <mxGeometry x="1845.25" y="648.5" width="80.62" height="20" as="geometry" />
        </mxCell>
        <mxCell id="PL4-hdovq-cvh_rnjsfR-59" value="" style="shape=image;verticalLabelPosition=bottom;labelBackgroundColor=default;verticalAlign=top;aspect=fixed;imageAspect=0;image=data:image/png,iVBORw0KGgoAAAANSUhEUgAAAMwAAADACAMAAAB/Pny7AAAAbFBMVEX///8jHyAAAADz8/P4+Pj7+/sgHB0bFhdgX1+qqaqJiIkIAAAfGhvr6+sVEBGAf39NSkrf3t4tKytZWVkPBwmamprl5eWTkpLR0NCxsLB6eXmjoqIqJifIx8dzcnK8u7s6NzhoZ2dCP0BTUVIOhml2AAAPmElEQVR4nO1dB5PrKBK2kASyAgrGCraV//9/PAUaUPCbke/tDdqb3qqterLG8Bk60t1cLr+0R7YZX8Nb1Ff3PLB/ejL/HdnBtUMIMcqG//tZbP30hP4LMosGUQOIIHZPf3pKH1MaUgllJB/d4p+e1IcUV8g3VoS68qen9RGllbfBYhisy396Yh+Qme1hGdDcTsg3pUHE/EeBhvk/MHF/emqHKbh5fPYU3dx71lIE/z4f25Qwd9TkpmmZZtyieXEwc0+mPc2WLwxyhKJ0qc+55mQywOTLwDpF6Vez1vFf9c9N7BOq+S5D6iKkzbw0KDvXPrvOYDzHVJ+289Kg0Hz3d1qSO4NB94Vp+ZzBeO25VE3FwdSLDVXOYJhzLgvtwcEUCzA1B9OeC0zGwbiLbZbxbVYFPzWvj6hAXNur07ZvdA+i9pSDaC6Uh/VrEs2YPn9sXh+RmcxmJkmkoolv/FlzMqVpcaYxWANmZe4QbhXsSWY7iONU15BHzO0Zg74euXkxc7fhWHxy37xdhn3XNE3Xh1pa1KYLZrNP8St5YQruDXPWC1N0hJKJKNVzD8YNA+cM+8N/8A/yKlYv3hARnw6+G4o0FNy1L1xNhTALV68laPUKQ/rtNetJtmgwq5ZMXlO2eclH+m016/mieDlNSqulviwx3WAZ0WjovtU9VeFQr8mWL8SRJxH4MppDGw3t6jiLKI8EYsa6x2r72ELkGcxLmheDGA4m4f4X/ijZ+f0x+Zc4abNy7ZPFPCpgEOTci7rIHGAz0mi40QYKwvHnZ+3O7GBhqH+fnAI7vjeUL42m0bX7OGUUbrWHzRfGp8Ltsa7cqKOahtgnMw09tmCEaX2X4tpyZ/2qpyXwBzB3cHrURYijaWkw3VpwOtBbMM6sL1G2G8LRk2negnnN7LHS95kx7TPvoaU7+hYMl8MrU+z64mC0DK7dP1uZULuVsc20nFiD3urUXDmS5+IZKy1aiuYpU0RvxfLsnLvWNFINsVRTaZZeO6ScBfoM+U9VCgs9c5VLZuupZ6zaQWv7fnAjC7GnAh5cM4ghJm4VzcxIeh19ms/GM7bEiDvP0iofEPMwWHOdH6ZPsM18nVjGcnfdrmEZ6GPcannWIOnqUNo+B6v53r74H2llNdsu24sATKxDqtR89svPMaNJk1DGOQxTnRbmTRLAjAY77Uu4YQKOT2QIh+oUoSkXiSbEQ566DpiAU8aQsbeAesUAEoVfEHq1j7ZB20QajPq89ras5WsVa8pkKIwhLr2CO0XLWA2a7Jgar+NmSKt1seT0UC91vhUyNVSDqvlxPKgjuWiYoptWRlkGCgZ7S6H0lIEnomQ21D0mPNZMcKSV5h84BpgauSszXuw/Hy/EVZk5Udd1UZvptMNGykHesn5jkkQQjN1EYK00TrXaXzPdCWT8FJvPxLEN0s9d2SXukOxHi3q+NLTX0pHcUM/BoGznx7+CpfzSSMe/JzPi/I+uO5+CD4ORTib+Wwo6wjXGlmUGI18wjZ4RyxWlAAbvaYyTgQn4NsPe3srEYpudAozVA8/sJWJA7qZPTyEALg6A2QmVyVOM7hyiOeRgfH9ryVuCZapzKM0Sw4TXpplinKnhpYmsgTTMNjETbtH7bC3PUsCCmWpR2kFcZ4+qyupYu/SZCqxJtkouDxpwK32jEAxlp8WNopmYU2gm5WLhnHldrThneSQTGHzUlvNHQRHJSgHfQ32hl2ho5Yk4y/J5bmb+bBbJGAhNzkv8WOVoMBRqtTipDF74qHOfdV0/3WgdSfNR9IxzZxUZGPWpXtm1TyVIQREb43tq3BlyMShxnL0YLtpkcf0kma0aclnE90YML8whYLofw2UPnYRafFsHkJSZdnXebg4IqIeQ2Ie+sec+/BjF/Ts0bDx5GYseFw9RV7lVg0AW0G344CdpWJs1Z0+Ekln3BC6SUgx15aD/LbOOwKg29EoXNsPNVholmPzJ0wg+l4ZaAEVErNVL21zKiFGF8zEmjKq8EMAxYCs1q9nyI1DtKtPsok8wj2JiQl7dMneOC3CfqWqlniuGsK/XPpsoz6ppdn7Tuuvfmm+pZcKT7Wh6dD5TOCc1bHmAH3ys6lK4O+TpmAvIncu9fDN+6Lc6jXkaOqebvAVDd8HctU4Eegum291mD6155i0YXsvltepHJo/usmzzvg70FgzP0PCpus+K2en2E62sM0FvwYDSZMpBec4Xhka6HTvNNCfPbSM18nzDEzZOzsvSjHXNgB4U3yc+J427/amhaNigRjYuTpzBmbu/LkzRgcobeCm+h7r1BE0R4fARarqXzBWgjnYLE1RIDVZQ1KwYJ1cyHQiVMQKS6GZmDlbzts5nGRa07t6e0+MzzdIAByzdNljho+VWM0O6TZ7x2eOHpvyW8n4v8KJk/U0UuK9NNIBqZ2MGldxjGCt5ct0yKGY+u0XKE0GRdnvMvooQAEWMMBmBpStz2C7DZHhjwDu6oqjZuD0/T6mIkaMoGzMWHSrqfNZnA2Z5bxvqIW/w4O6lfsayfRUHMVk8roQVP0Ehsm3XCSvO6+Ja1HmsnXq5jOoQMhueMHOrgDqfN2aXjjgmghyZRe8Pd06q0dJU+RNxq8v31MAkpDucrVULtJ2oFuxRQauWcxybA0F3k+dCNl1P2arFhpBYsduq5WTdTaBVy/KAvGBnXBnBM0tt756TZ7g0I4m6BpCJdjZpBqfnSA0YXefwnmbHYl8TWAC+kqdVdn+2ALQlYZtR/zkziFlAuuOObaY5xZCpTWh7r8v6WSWizkeznPKvyRKpAJgZTde8ZKuW6mwLMzg0MhVgzPSXdT6nbHFaNtu+JWOR1slEGafa2KLBSM/g/tc0rM0qKkZ2E7fPQbFDlDofn1DjjPwiqOgTSunUUoquT85PSPXD6cc6H+ehWYbfZ2SmeZnH/wYkv/RLv/RLv/RLv/RL/36y/8cVTbbF6S9/bxDndV088xnNPzTIiqz6PtPf9RPzIoxeYz3T3KM+z/go/+xCmSGvomr+4pdaRe+hKYl7BmM/oVTrn10a6FdMo7/4nRmFCAEHc4Vg+/nAZExEB04PpmxkjsnpwTwgpkZAAJwXTArtHFjyjM1p9ucFw2sxDNqLSNp5wWRzJF0tYDovGNfjXyhDnOcFE3IwSp2crmCCNB4o/UPcD8Dc5DtHwZjBNMjhMvV9MLEgdXQ7HUyuNmqaqHWLPJgf8femf1njFHhh+sD/4vk+mFQMsvhpgrx226hrOie8lvOhacDf+yphYhdM6XC6uUqOQnytBtvRo4SMd2g24Xg1kBne5hen5Mu0dZyWCzOcjJ/0U1LKLpi8hUHU6u20eDRykORRD0DtjA+yl6f/FZi8Q2wi1Jdipc3CoWr6KEVJFlzMfn4VTVmxsTH8C0wZTMfnb5VmfPP4IEotvlVXGCmDEPRy44td8UFux8HEogKhlwmiaZisj5coqgLzxpvMzmCSdT+9t2DSipcS0k5e/mRmzbp7Ihnv6QznP2fOYTBxC/evdPIgPHZ2Mq4xagNnCWb90jswQchTiEkis6OCiuwUd6MocD8FEzw4FtrInyyN1ssyo6EhVCseWxkz46X2BD/FIJaz39QSVQ/vMzCDL8J/spf0Pe3dDPMRjZFAwuYEBiNP8NXIM3QfjH0lXEpQJXGo3a+YHmUJ/gzMk5cjLPoQy9sXhq3FabkhZjBpe5PS7BX1fd9d98DUVDTjkYOoXRMYeKbwm30EpoAbJdSKvVIOg1A7yf742S3gIJnjD+aM81Zp5tClAjnKROS6DGKrHgdJi35R13IQTC2GUQsQRB9QonbIK1U+Ut4XFoBUUUswOfThRTdlEJH14avZhIPgkXx0DEzOp42hEeY8a1FxtcxativJSQfAxB0krPXKl4keMAQvix8y2dPyEBg5TKu+wlXJIBLWOUuyWuP7YIJeYFGnFvJBfP+5sshkT9UjYEQ7CbToPgBVipg+12ai3Yl2k98EY4t+It6i/bkNGsrbmixiA34fTG86gMVZJI1e+WbaS4zNZbvJb4FpzFBgWeQMly9wT7epxIFoNPz9lYFh1vd881zy/T6A4j7ab4HxG1dgWWanZLztA9qLecIffRsMfgkRs0qCgfTLnd9MucP1W2AMuOmJdeVy0rxBJ2n2yoXio2BAMdE1Fgtul921v1Oolf8eGE4kqlcLcIOE9T2XxWrg5tHvguG0+bqU21u7bQAvZqfaZt8Fs0myFWnRu/c+Q8b+98GAtURWMguMx/10MuhY8k0wGPpwusvEdGgD6e0mR9lHrWYSwc2Sq8SxfL6ZxPD2wVTeATC44ZFb5fajidK/C4bdoNsqW1xh+tXK9Ee2GWmgLIq+FuIkENn3u2Cq4/4MbLhlt8UAwOyWWAaHBABJRLdd1Ks/GTTo3L/22YoOCoDRnAF9vqzrBWm2e1VujvAhMNZFqOZFY2HnTzclp94H/kzM7/NZ9luN/qQCskN6ZgRjCoWmWnoPzkvGnmYujuqZEYwojWVqj1IX1uu+jeAFr63L8JXVXPKdSQxFCfAqj11tZnf0AzCDbNr+0MID2KvAkI1Avw9G3GGLHCXwxDmTJNtqAliYo85ZHG3ZxoYoxbbhrLAzDzlnATQLVGWXaNG74ZoYg3t2EIxd8H1DFNEpDJ61eZ7LLPojYC4l3ESjsA3Y5sNPtjRBYhlMORoDMLkHP7jwYi6iqbTP1ECqXUcfeZpjmQdnG6XmHm6DHi9MVbdz6cgowOHoTMz3ACZyDwiHEnu3Ox/erN1GiWgcAnMJHsCHUqXJOhYvgvsQrDLrlEGOBwFrPkeSCLZJZc9P5vdVmN3dh9MsQpzHwFxy3pbG94UqtuWepSRqH9k9e7TdIsT5QXg2g4imPJMUTWSm0B4da5ooP+w7LponugJvSu0lpQkfxKeMTwWKwI6DgfCxwYT0spSLWgy11QTGUKB9EIy4FoVK6XV9M8hgBJNPwQxCCgwB4cII131JGF0PuQDKKQAoASxdGPv+pqNl9nHgfKA7hJuNUnlt7xTAtW8fgrnUL+hkf1Ve27kZCTmHjjTGFWXqyZnD8EiDaStFcZFQsvjhMKXZZTyfmd5UwExfiNdgxmeLkzOXzoMwxegru/UghFYXe/5Kw/sGGH+gQR4qD4OG4vGpr5Yqx4/Gp7xtLvYpNaJhEubNw/OLCpjpT9kSzPSMvpTZ2Dfqz4MonnrgdlgOMsiy7jr5M/OLX4Gx6tCdaOGuwEN30Sw6z5wuIYx5zE+i9jp+s3nn70nzp+B/+pQj2yX/vkXlc+7CIKqWjO9tl/gwyFTWaouv/Ksn72Z5zcKBsuIf7FVi5cV9HiTXr7fLL/3SL/3SL/0f0X8Adqv8/6MRb8cAAAAASUVORK5CYII=;" vertex="1" parent="1">
          <mxGeometry x="1844.13" y="1060.8200000000002" width="68.37" height="64.35" as="geometry" />
        </mxCell>
        <mxCell id="PL4-hdovq-cvh_rnjsfR-60" value="&lt;span data-teams=&quot;true&quot;&gt;payment cdc topic&lt;/span&gt;" style="text;html=1;align=center;verticalAlign=middle;whiteSpace=wrap;rounded=0;" vertex="1" parent="1">
          <mxGeometry x="1831.63" y="1133.5" width="103.37" height="20" as="geometry" />
        </mxCell>
        <mxCell id="PL4-hdovq-cvh_rnjsfR-61" value="" style="shape=image;verticalLabelPosition=bottom;labelBackgroundColor=default;verticalAlign=top;aspect=fixed;imageAspect=0;image=data:image/png,iVBORw0KGgoAAAANSUhEUgAAAMwAAADACAMAAAB/Pny7AAAAbFBMVEX///8jHyAAAADz8/P4+Pj7+/sgHB0bFhdgX1+qqaqJiIkIAAAfGhvr6+sVEBGAf39NSkrf3t4tKytZWVkPBwmamprl5eWTkpLR0NCxsLB6eXmjoqIqJifIx8dzcnK8u7s6NzhoZ2dCP0BTUVIOhml2AAAPmElEQVR4nO1dB5PrKBK2kASyAgrGCraV//9/PAUaUPCbke/tDdqb3qqterLG8Bk60t1cLr+0R7YZX8Nb1Ff3PLB/ejL/HdnBtUMIMcqG//tZbP30hP4LMosGUQOIIHZPf3pKH1MaUgllJB/d4p+e1IcUV8g3VoS68qen9RGllbfBYhisy396Yh+Qme1hGdDcTsg3pUHE/EeBhvk/MHF/emqHKbh5fPYU3dx71lIE/z4f25Qwd9TkpmmZZtyieXEwc0+mPc2WLwxyhKJ0qc+55mQywOTLwDpF6Vez1vFf9c9N7BOq+S5D6iKkzbw0KDvXPrvOYDzHVJ+289Kg0Hz3d1qSO4NB94Vp+ZzBeO25VE3FwdSLDVXOYJhzLgvtwcEUCzA1B9OeC0zGwbiLbZbxbVYFPzWvj6hAXNur07ZvdA+i9pSDaC6Uh/VrEs2YPn9sXh+RmcxmJkmkoolv/FlzMqVpcaYxWANmZe4QbhXsSWY7iONU15BHzO0Zg74euXkxc7fhWHxy37xdhn3XNE3Xh1pa1KYLZrNP8St5YQruDXPWC1N0hJKJKNVzD8YNA+cM+8N/8A/yKlYv3hARnw6+G4o0FNy1L1xNhTALV68laPUKQ/rtNetJtmgwq5ZMXlO2eclH+m016/mieDlNSqulviwx3WAZ0WjovtU9VeFQr8mWL8SRJxH4MppDGw3t6jiLKI8EYsa6x2r72ELkGcxLmheDGA4m4f4X/ijZ+f0x+Zc4abNy7ZPFPCpgEOTci7rIHGAz0mi40QYKwvHnZ+3O7GBhqH+fnAI7vjeUL42m0bX7OGUUbrWHzRfGp8Ltsa7cqKOahtgnMw09tmCEaX2X4tpyZ/2qpyXwBzB3cHrURYijaWkw3VpwOtBbMM6sL1G2G8LRk2negnnN7LHS95kx7TPvoaU7+hYMl8MrU+z64mC0DK7dP1uZULuVsc20nFiD3urUXDmS5+IZKy1aiuYpU0RvxfLsnLvWNFINsVRTaZZeO6ScBfoM+U9VCgs9c5VLZuupZ6zaQWv7fnAjC7GnAh5cM4ghJm4VzcxIeh19ms/GM7bEiDvP0iofEPMwWHOdH6ZPsM18nVjGcnfdrmEZ6GPcannWIOnqUNo+B6v53r74H2llNdsu24sATKxDqtR89svPMaNJk1DGOQxTnRbmTRLAjAY77Uu4YQKOT2QIh+oUoSkXiSbEQ566DpiAU8aQsbeAesUAEoVfEHq1j7ZB20QajPq89ras5WsVa8pkKIwhLr2CO0XLWA2a7Jgar+NmSKt1seT0UC91vhUyNVSDqvlxPKgjuWiYoptWRlkGCgZ7S6H0lIEnomQ21D0mPNZMcKSV5h84BpgauSszXuw/Hy/EVZk5Udd1UZvptMNGykHesn5jkkQQjN1EYK00TrXaXzPdCWT8FJvPxLEN0s9d2SXukOxHi3q+NLTX0pHcUM/BoGznx7+CpfzSSMe/JzPi/I+uO5+CD4ORTib+Wwo6wjXGlmUGI18wjZ4RyxWlAAbvaYyTgQn4NsPe3srEYpudAozVA8/sJWJA7qZPTyEALg6A2QmVyVOM7hyiOeRgfH9ryVuCZapzKM0Sw4TXpplinKnhpYmsgTTMNjETbtH7bC3PUsCCmWpR2kFcZ4+qyupYu/SZCqxJtkouDxpwK32jEAxlp8WNopmYU2gm5WLhnHldrThneSQTGHzUlvNHQRHJSgHfQ32hl2ho5Yk4y/J5bmb+bBbJGAhNzkv8WOVoMBRqtTipDF74qHOfdV0/3WgdSfNR9IxzZxUZGPWpXtm1TyVIQREb43tq3BlyMShxnL0YLtpkcf0kma0aclnE90YML8whYLofw2UPnYRafFsHkJSZdnXebg4IqIeQ2Ie+sec+/BjF/Ts0bDx5GYseFw9RV7lVg0AW0G344CdpWJs1Z0+Ekln3BC6SUgx15aD/LbOOwKg29EoXNsPNVholmPzJ0wg+l4ZaAEVErNVL21zKiFGF8zEmjKq8EMAxYCs1q9nyI1DtKtPsok8wj2JiQl7dMneOC3CfqWqlniuGsK/XPpsoz6ppdn7Tuuvfmm+pZcKT7Wh6dD5TOCc1bHmAH3ys6lK4O+TpmAvIncu9fDN+6Lc6jXkaOqebvAVDd8HctU4Eegum291mD6155i0YXsvltepHJo/usmzzvg70FgzP0PCpus+K2en2E62sM0FvwYDSZMpBec4Xhka6HTvNNCfPbSM18nzDEzZOzsvSjHXNgB4U3yc+J427/amhaNigRjYuTpzBmbu/LkzRgcobeCm+h7r1BE0R4fARarqXzBWgjnYLE1RIDVZQ1KwYJ1cyHQiVMQKS6GZmDlbzts5nGRa07t6e0+MzzdIAByzdNljho+VWM0O6TZ7x2eOHpvyW8n4v8KJk/U0UuK9NNIBqZ2MGldxjGCt5ct0yKGY+u0XKE0GRdnvMvooQAEWMMBmBpStz2C7DZHhjwDu6oqjZuD0/T6mIkaMoGzMWHSrqfNZnA2Z5bxvqIW/w4O6lfsayfRUHMVk8roQVP0Ehsm3XCSvO6+Ja1HmsnXq5jOoQMhueMHOrgDqfN2aXjjgmghyZRe8Pd06q0dJU+RNxq8v31MAkpDucrVULtJ2oFuxRQauWcxybA0F3k+dCNl1P2arFhpBYsduq5WTdTaBVy/KAvGBnXBnBM0tt756TZ7g0I4m6BpCJdjZpBqfnSA0YXefwnmbHYl8TWAC+kqdVdn+2ALQlYZtR/zkziFlAuuOObaY5xZCpTWh7r8v6WSWizkeznPKvyRKpAJgZTde8ZKuW6mwLMzg0MhVgzPSXdT6nbHFaNtu+JWOR1slEGafa2KLBSM/g/tc0rM0qKkZ2E7fPQbFDlDofn1DjjPwiqOgTSunUUoquT85PSPXD6cc6H+ehWYbfZ2SmeZnH/wYkv/RLv/RLv/RLv/RL/36y/8cVTbbF6S9/bxDndV088xnNPzTIiqz6PtPf9RPzIoxeYz3T3KM+z/go/+xCmSGvomr+4pdaRe+hKYl7BmM/oVTrn10a6FdMo7/4nRmFCAEHc4Vg+/nAZExEB04PpmxkjsnpwTwgpkZAAJwXTArtHFjyjM1p9ucFw2sxDNqLSNp5wWRzJF0tYDovGNfjXyhDnOcFE3IwSp2crmCCNB4o/UPcD8Dc5DtHwZjBNMjhMvV9MLEgdXQ7HUyuNmqaqHWLPJgf8femf1njFHhh+sD/4vk+mFQMsvhpgrx226hrOie8lvOhacDf+yphYhdM6XC6uUqOQnytBtvRo4SMd2g24Xg1kBne5hen5Mu0dZyWCzOcjJ/0U1LKLpi8hUHU6u20eDRykORRD0DtjA+yl6f/FZi8Q2wi1Jdipc3CoWr6KEVJFlzMfn4VTVmxsTH8C0wZTMfnb5VmfPP4IEotvlVXGCmDEPRy44td8UFux8HEogKhlwmiaZisj5coqgLzxpvMzmCSdT+9t2DSipcS0k5e/mRmzbp7Ihnv6QznP2fOYTBxC/evdPIgPHZ2Mq4xagNnCWb90jswQchTiEkis6OCiuwUd6MocD8FEzw4FtrInyyN1ssyo6EhVCseWxkz46X2BD/FIJaz39QSVQ/vMzCDL8J/spf0Pe3dDPMRjZFAwuYEBiNP8NXIM3QfjH0lXEpQJXGo3a+YHmUJ/gzMk5cjLPoQy9sXhq3FabkhZjBpe5PS7BX1fd9d98DUVDTjkYOoXRMYeKbwm30EpoAbJdSKvVIOg1A7yf742S3gIJnjD+aM81Zp5tClAjnKROS6DGKrHgdJi35R13IQTC2GUQsQRB9QonbIK1U+Ut4XFoBUUUswOfThRTdlEJH14avZhIPgkXx0DEzOp42hEeY8a1FxtcxativJSQfAxB0krPXKl4keMAQvix8y2dPyEBg5TKu+wlXJIBLWOUuyWuP7YIJeYFGnFvJBfP+5sshkT9UjYEQ7CbToPgBVipg+12ai3Yl2k98EY4t+It6i/bkNGsrbmixiA34fTG86gMVZJI1e+WbaS4zNZbvJb4FpzFBgWeQMly9wT7epxIFoNPz9lYFh1vd881zy/T6A4j7ab4HxG1dgWWanZLztA9qLecIffRsMfgkRs0qCgfTLnd9MucP1W2AMuOmJdeVy0rxBJ2n2yoXio2BAMdE1Fgtul921v1Oolf8eGE4kqlcLcIOE9T2XxWrg5tHvguG0+bqU21u7bQAvZqfaZt8Fs0myFWnRu/c+Q8b+98GAtURWMguMx/10MuhY8k0wGPpwusvEdGgD6e0mR9lHrWYSwc2Sq8SxfL6ZxPD2wVTeATC44ZFb5fajidK/C4bdoNsqW1xh+tXK9Ee2GWmgLIq+FuIkENn3u2Cq4/4MbLhlt8UAwOyWWAaHBABJRLdd1Ks/GTTo3L/22YoOCoDRnAF9vqzrBWm2e1VujvAhMNZFqOZFY2HnTzclp94H/kzM7/NZ9luN/qQCskN6ZgRjCoWmWnoPzkvGnmYujuqZEYwojWVqj1IX1uu+jeAFr63L8JXVXPKdSQxFCfAqj11tZnf0AzCDbNr+0MID2KvAkI1Avw9G3GGLHCXwxDmTJNtqAliYo85ZHG3ZxoYoxbbhrLAzDzlnATQLVGWXaNG74ZoYg3t2EIxd8H1DFNEpDJ61eZ7LLPojYC4l3ESjsA3Y5sNPtjRBYhlMORoDMLkHP7jwYi6iqbTP1ECqXUcfeZpjmQdnG6XmHm6DHi9MVbdz6cgowOHoTMz3ACZyDwiHEnu3Ox/erN1GiWgcAnMJHsCHUqXJOhYvgvsQrDLrlEGOBwFrPkeSCLZJZc9P5vdVmN3dh9MsQpzHwFxy3pbG94UqtuWepSRqH9k9e7TdIsT5QXg2g4imPJMUTWSm0B4da5ooP+w7LponugJvSu0lpQkfxKeMTwWKwI6DgfCxwYT0spSLWgy11QTGUKB9EIy4FoVK6XV9M8hgBJNPwQxCCgwB4cII131JGF0PuQDKKQAoASxdGPv+pqNl9nHgfKA7hJuNUnlt7xTAtW8fgrnUL+hkf1Ve27kZCTmHjjTGFWXqyZnD8EiDaStFcZFQsvjhMKXZZTyfmd5UwExfiNdgxmeLkzOXzoMwxegru/UghFYXe/5Kw/sGGH+gQR4qD4OG4vGpr5Yqx4/Gp7xtLvYpNaJhEubNw/OLCpjpT9kSzPSMvpTZ2Dfqz4MonnrgdlgOMsiy7jr5M/OLX4Gx6tCdaOGuwEN30Sw6z5wuIYx5zE+i9jp+s3nn70nzp+B/+pQj2yX/vkXlc+7CIKqWjO9tl/gwyFTWaouv/Ksn72Z5zcKBsuIf7FVi5cV9HiTXr7fLL/3SL/3SL/0f0X8Adqv8/6MRb8cAAAAASUVORK5CYII=;" vertex="1" parent="1">
          <mxGeometry x="1844.13" y="1463.32" width="68.37" height="64.35" as="geometry" />
        </mxCell>
        <mxCell id="PL4-hdovq-cvh_rnjsfR-62" value="&lt;span data-teams=&quot;true&quot;&gt;product cdc topic&lt;/span&gt;" style="text;html=1;align=center;verticalAlign=middle;whiteSpace=wrap;rounded=0;" vertex="1" parent="1">
          <mxGeometry x="1832.75" y="1537.5" width="105.62" height="20" as="geometry" />
        </mxCell>
        <mxCell id="PL4-hdovq-cvh_rnjsfR-63" value="OrdersDB" style="text;html=1;align=center;verticalAlign=middle;whiteSpace=wrap;rounded=0;" vertex="1" parent="1">
          <mxGeometry x="2286" y="630" width="60" height="30" as="geometry" />
        </mxCell>
        <mxCell id="PL4-hdovq-cvh_rnjsfR-64" value="PaymentDB" style="text;html=1;align=center;verticalAlign=middle;whiteSpace=wrap;rounded=0;" vertex="1" parent="1">
          <mxGeometry x="2286" y="1140.06" width="60" height="30" as="geometry" />
        </mxCell>
        <mxCell id="PL4-hdovq-cvh_rnjsfR-65" value="ProductsDB" style="text;html=1;align=center;verticalAlign=middle;whiteSpace=wrap;rounded=0;" vertex="1" parent="1">
          <mxGeometry x="2286" y="1547.64" width="60" height="30" as="geometry" />
        </mxCell>
        <mxCell id="PL4-hdovq-cvh_rnjsfR-66" value="UserDB" style="text;html=1;align=center;verticalAlign=middle;whiteSpace=wrap;rounded=0;" vertex="1" parent="1">
          <mxGeometry x="2290" y="290" width="60" height="30" as="geometry" />
        </mxCell>
        <mxCell id="PL4-hdovq-cvh_rnjsfR-67" value="1" style="ellipse;whiteSpace=wrap;html=1;aspect=fixed;rotation=0;gradientColor=#223548;strokeColor=none;gradientDirection=east;fillColor=#5b738b;rounded=0;pointerEvents=0;fontFamily=Helvetica;fontSize=16;fontColor=#FFFFFF;spacingTop=4;spacingBottom=4;spacingLeft=4;spacingRight=4;points=[];fontStyle=1" vertex="1" parent="1">
          <mxGeometry x="330" y="223.75" width="30" height="30" as="geometry" />
        </mxCell>
        <mxCell id="PL4-hdovq-cvh_rnjsfR-68" value="2" style="ellipse;whiteSpace=wrap;html=1;aspect=fixed;rotation=0;gradientColor=#223548;strokeColor=none;gradientDirection=east;fillColor=#5b738b;rounded=0;pointerEvents=0;fontFamily=Helvetica;fontSize=16;fontColor=#FFFFFF;spacingTop=4;spacingBottom=4;spacingLeft=4;spacingRight=4;points=[];fontStyle=1" vertex="1" parent="1">
          <mxGeometry x="430" y="570" width="30" height="30" as="geometry" />
        </mxCell>
        <mxCell id="PL4-hdovq-cvh_rnjsfR-69" value="3" style="ellipse;whiteSpace=wrap;html=1;aspect=fixed;rotation=0;gradientColor=#223548;strokeColor=none;gradientDirection=east;fillColor=#5b738b;rounded=0;pointerEvents=0;fontFamily=Helvetica;fontSize=16;fontColor=#FFFFFF;spacingTop=4;spacingBottom=4;spacingLeft=4;spacingRight=4;points=[];fontStyle=1" vertex="1" parent="1">
          <mxGeometry x="620" y="643.5" width="30" height="30" as="geometry" />
        </mxCell>
        <mxCell id="PL4-hdovq-cvh_rnjsfR-70" value="4" style="ellipse;whiteSpace=wrap;html=1;aspect=fixed;rotation=0;gradientColor=#223548;strokeColor=none;gradientDirection=east;fillColor=#5b738b;rounded=0;pointerEvents=0;fontFamily=Helvetica;fontSize=16;fontColor=#FFFFFF;spacingTop=4;spacingBottom=4;spacingLeft=4;spacingRight=4;points=[];fontStyle=1" vertex="1" parent="1">
          <mxGeometry x="861" y="730" width="30" height="30" as="geometry" />
        </mxCell>
        <mxCell id="PL4-hdovq-cvh_rnjsfR-71" value="5" style="ellipse;whiteSpace=wrap;html=1;aspect=fixed;rotation=0;gradientColor=#223548;strokeColor=none;gradientDirection=east;fillColor=#5b738b;rounded=0;pointerEvents=0;fontFamily=Helvetica;fontSize=16;fontColor=#FFFFFF;spacingTop=4;spacingBottom=4;spacingLeft=4;spacingRight=4;points=[];fontStyle=1" vertex="1" parent="1">
          <mxGeometry x="1190" y="830" width="30" height="30" as="geometry" />
        </mxCell>
        <mxCell id="PL4-hdovq-cvh_rnjsfR-72" value="6" style="ellipse;whiteSpace=wrap;html=1;aspect=fixed;rotation=0;gradientColor=#223548;strokeColor=none;gradientDirection=east;fillColor=#5b738b;rounded=0;pointerEvents=0;fontFamily=Helvetica;fontSize=16;fontColor=#FFFFFF;spacingTop=4;spacingBottom=4;spacingLeft=4;spacingRight=4;points=[];fontStyle=1" vertex="1" parent="1">
          <mxGeometry x="1100" y="1260" width="30" height="30" as="geometry" />
        </mxCell>
        <mxCell id="PL4-hdovq-cvh_rnjsfR-73" value="7" style="ellipse;whiteSpace=wrap;html=1;aspect=fixed;rotation=0;gradientColor=#223548;strokeColor=none;gradientDirection=east;fillColor=#5b738b;rounded=0;pointerEvents=0;fontFamily=Helvetica;fontSize=16;fontColor=#FFFFFF;spacingTop=4;spacingBottom=4;spacingLeft=4;spacingRight=4;points=[];fontStyle=1" vertex="1" parent="1">
          <mxGeometry x="1000" y="1527.5" width="30" height="30" as="geometry" />
        </mxCell>
        <mxCell id="PL4-hdovq-cvh_rnjsfR-74" value="" style="endArrow=classic;dashed=1;html=1;dashPattern=1 3;strokeWidth=2;rounded=0;startArrow=none;startFill=0;endFill=1;" edge="1" parent="1">
          <mxGeometry width="50" height="50" relative="1" as="geometry">
            <mxPoint x="36.64" y="2024.2099999999998" as="sourcePoint" />
            <mxPoint x="131.64" y="2024" as="targetPoint" />
          </mxGeometry>
        </mxCell>
        <mxCell id="PL4-hdovq-cvh_rnjsfR-75" value="&lt;b&gt;Kafka Events (Publishing to Kafka topic)&lt;/b&gt;" style="text;html=1;align=center;verticalAlign=middle;whiteSpace=wrap;rounded=0;" vertex="1" parent="1">
          <mxGeometry x="182.95" y="2010" width="235" height="30" as="geometry" />
        </mxCell>
        <mxCell id="PL4-hdovq-cvh_rnjsfR-76" value="1" style="ellipse;whiteSpace=wrap;html=1;aspect=fixed;rotation=0;gradientColor=#223548;strokeColor=none;gradientDirection=east;fillColor=#5b738b;rounded=0;pointerEvents=0;fontFamily=Helvetica;fontSize=16;fontColor=#FFFFFF;spacingTop=4;spacingBottom=4;spacingLeft=4;spacingRight=4;points=[];fontStyle=1" vertex="1" parent="1">
          <mxGeometry x="61.64" y="2060" width="30" height="30" as="geometry" />
        </mxCell>
        <mxCell id="PL4-hdovq-cvh_rnjsfR-77" value="User Authentication&amp;nbsp;&amp;nbsp;" style="text;html=1;align=center;verticalAlign=middle;whiteSpace=wrap;rounded=0;" vertex="1" parent="1">
          <mxGeometry x="171.64" y="2070" width="143.69" height="30" as="geometry" />
        </mxCell>
        <mxCell id="PL4-hdovq-cvh_rnjsfR-78" value="2" style="ellipse;whiteSpace=wrap;html=1;aspect=fixed;rotation=0;gradientColor=#223548;strokeColor=none;gradientDirection=east;fillColor=#5b738b;rounded=0;pointerEvents=0;fontFamily=Helvetica;fontSize=16;fontColor=#FFFFFF;spacingTop=4;spacingBottom=4;spacingLeft=4;spacingRight=4;points=[];fontStyle=1" vertex="1" parent="1">
          <mxGeometry x="61.64" y="2100" width="30" height="30" as="geometry" />
        </mxCell>
        <mxCell id="PL4-hdovq-cvh_rnjsfR-79" value="Send Create_Order request with token" style="text;html=1;align=center;verticalAlign=middle;whiteSpace=wrap;rounded=0;" vertex="1" parent="1">
          <mxGeometry x="169.03" y="2110" width="240.97" height="30" as="geometry" />
        </mxCell>
        <mxCell id="PL4-hdovq-cvh_rnjsfR-80" value="3" style="ellipse;whiteSpace=wrap;html=1;aspect=fixed;rotation=0;gradientColor=#223548;strokeColor=none;gradientDirection=east;fillColor=#5b738b;rounded=0;pointerEvents=0;fontFamily=Helvetica;fontSize=16;fontColor=#FFFFFF;spacingTop=4;spacingBottom=4;spacingLeft=4;spacingRight=4;points=[];fontStyle=1" vertex="1" parent="1">
          <mxGeometry x="61.64" y="2140" width="30" height="30" as="geometry" />
        </mxCell>
        <mxCell id="PL4-hdovq-cvh_rnjsfR-81" value="Publish create_payment event to payment-events topic, consumed by payment microservice" style="text;html=1;align=center;verticalAlign=middle;whiteSpace=wrap;rounded=0;" vertex="1" parent="1">
          <mxGeometry x="169.02999999999997" y="2190" width="522.61" height="30" as="geometry" />
        </mxCell>
        <mxCell id="PL4-hdovq-cvh_rnjsfR-82" value="Check Product Stock from Product Service" style="text;html=1;align=center;verticalAlign=middle;resizable=0;points=[];autosize=1;strokeColor=none;fillColor=none;" vertex="1" parent="1">
          <mxGeometry x="171.64" y="2148" width="250" height="30" as="geometry" />
        </mxCell>
        <mxCell id="PL4-hdovq-cvh_rnjsfR-83" value="4" style="ellipse;whiteSpace=wrap;html=1;aspect=fixed;rotation=0;gradientColor=#223548;strokeColor=none;gradientDirection=east;fillColor=#5b738b;rounded=0;pointerEvents=0;fontFamily=Helvetica;fontSize=16;fontColor=#FFFFFF;spacingTop=4;spacingBottom=4;spacingLeft=4;spacingRight=4;points=[];fontStyle=1" vertex="1" parent="1">
          <mxGeometry x="61.64" y="2180" width="30" height="30" as="geometry" />
        </mxCell>
        <mxCell id="PL4-hdovq-cvh_rnjsfR-84" value="5" style="ellipse;whiteSpace=wrap;html=1;aspect=fixed;rotation=0;gradientColor=#223548;strokeColor=none;gradientDirection=east;fillColor=#5b738b;rounded=0;pointerEvents=0;fontFamily=Helvetica;fontSize=16;fontColor=#FFFFFF;spacingTop=4;spacingBottom=4;spacingLeft=4;spacingRight=4;points=[];fontStyle=1" vertex="1" parent="1">
          <mxGeometry x="61.64" y="2220" width="30" height="30" as="geometry" />
        </mxCell>
        <mxCell id="PL4-hdovq-cvh_rnjsfR-85" value="Publish payments_complete event&amp;nbsp; to order-events topic, consumed by order microservice" style="text;html=1;align=center;verticalAlign=middle;whiteSpace=wrap;rounded=0;" vertex="1" parent="1">
          <mxGeometry x="182.94999999999993" y="2230" width="490" height="30" as="geometry" />
        </mxCell>
        <mxCell id="PL4-hdovq-cvh_rnjsfR-97" style="edgeStyle=orthogonalEdgeStyle;rounded=0;orthogonalLoop=1;jettySize=auto;html=1;entryX=0.5;entryY=1;entryDx=0;entryDy=0;entryPerimeter=0;" edge="1" parent="1" source="PL4-hdovq-cvh_rnjsfR-37" target="PL4-hdovq-cvh_rnjsfR-51">
          <mxGeometry relative="1" as="geometry">
            <Array as="points">
              <mxPoint x="875" y="1750" />
              <mxPoint x="2316" y="1750" />
            </Array>
          </mxGeometry>
        </mxCell>
        <mxCell id="PL4-hdovq-cvh_rnjsfR-106" value="&lt;font style=&quot;font-size: 20px;&quot;&gt;&lt;b style=&quot;&quot;&gt;Kafka Topics&lt;/b&gt;&lt;/font&gt;" style="rounded=0;whiteSpace=wrap;html=1;fillColor=#d5e8d4;strokeColor=#82b366;" vertex="1" parent="1">
          <mxGeometry x="1370" y="110" width="170" height="40" as="geometry" />
        </mxCell>
        <mxCell id="PL4-hdovq-cvh_rnjsfR-107" value="&lt;font style=&quot;font-size: 19px;&quot;&gt;&lt;b&gt;Microservices&lt;/b&gt;&lt;/font&gt;" style="rounded=0;whiteSpace=wrap;html=1;fillColor=#f8cecc;strokeColor=#b85450;" vertex="1" parent="1">
          <mxGeometry x="550" y="100" width="190" height="50" as="geometry" />
        </mxCell>
        <mxCell id="PL4-hdovq-cvh_rnjsfR-108" value="&lt;b&gt;&lt;font style=&quot;font-size: 17px;&quot;&gt;Database&lt;/font&gt;&lt;/b&gt;" style="rounded=0;whiteSpace=wrap;html=1;fillColor=#fff2cc;strokeColor=#d6b656;" vertex="1" parent="1">
          <mxGeometry x="2210" y="110" width="100" height="40" as="geometry" />
        </mxCell>
        <mxCell id="PL4-hdovq-cvh_rnjsfR-110" value="6" style="ellipse;whiteSpace=wrap;html=1;aspect=fixed;rotation=0;gradientColor=#223548;strokeColor=none;gradientDirection=east;fillColor=#5b738b;rounded=0;pointerEvents=0;fontFamily=Helvetica;fontSize=16;fontColor=#FFFFFF;spacingTop=4;spacingBottom=4;spacingLeft=4;spacingRight=4;points=[];fontStyle=1" vertex="1" parent="1">
          <mxGeometry x="61.64" y="2260" width="30" height="30" as="geometry" />
        </mxCell>
        <mxCell id="PL4-hdovq-cvh_rnjsfR-111" value="Publish update_stoke event to product-events topic, consumed by product microservice" style="text;html=1;align=center;verticalAlign=middle;whiteSpace=wrap;rounded=0;" vertex="1" parent="1">
          <mxGeometry x="182.95" y="2270" width="473.69" height="30" as="geometry" />
        </mxCell>
        <mxCell id="PL4-hdovq-cvh_rnjsfR-112" value="7" style="ellipse;whiteSpace=wrap;html=1;aspect=fixed;rotation=0;gradientColor=#223548;strokeColor=none;gradientDirection=east;fillColor=#5b738b;rounded=0;pointerEvents=0;fontFamily=Helvetica;fontSize=16;fontColor=#FFFFFF;spacingTop=4;spacingBottom=4;spacingLeft=4;spacingRight=4;points=[];fontStyle=1" vertex="1" parent="1">
          <mxGeometry x="61.64" y="2300" width="30" height="30" as="geometry" />
        </mxCell>
        <mxCell id="PL4-hdovq-cvh_rnjsfR-113" value="Publish stoke_updated event to order-events topic, consumed by order microservice" style="text;html=1;align=center;verticalAlign=middle;whiteSpace=wrap;rounded=0;" vertex="1" parent="1">
          <mxGeometry x="182.95" y="2310" width="463.69" height="30" as="geometry" />
        </mxCell>
        <mxCell id="PL4-hdovq-cvh_rnjsfR-114" value="&lt;font style=&quot;font-size: 22px;&quot;&gt;Client&lt;/font&gt;" style="text;html=1;align=center;verticalAlign=middle;whiteSpace=wrap;rounded=0;" vertex="1" parent="1">
          <mxGeometry x="-165" y="710" width="60" height="30" as="geometry" />
        </mxCell>
      </root>
    </mxGraphModel>
  </diagram>
</mxfile>
